<?xml version="1.0" standalone="no"?>
<!DOCTYPE svg PUBLIC "-//W3C//DTD SVG 20010904//EN"
 "http://www.w3.org/TR/2001/REC-SVG-20010904/DTD/svg10.dtd">
<svg version="1.0" xmlns="http://www.w3.org/2000/svg"
 width="865.000000pt" height="865.000000pt" viewBox="0 0 865.000000 865.000000"
 preserveAspectRatio="xMidYMid meet">
<metadata>
Created by potrace 1.14, written by Peter Selinger 2001-2017
</metadata>
<g transform="translate(0.000000,865.000000) scale(0.100000,-0.100000)"
fill="#000000" stroke="none">
<path d="M5771 5339 c-66 -6 -99 -24 -135 -73 -19 -25 -21 -44 -24 -232 -2
-112 -7 -204 -11 -204 -4 0 -16 -17 -25 -38 -14 -32 -17 -60 -13 -163 6 -158
34 -272 88 -363 10 -16 15 -34 12 -40 -3 -6 -3 -8 2 -4 10 9 56 -52 49 -64 -3
-5 -1 -7 4 -6 5 2 29 -16 53 -40 78 -76 102 -97 95 -85 -4 8 5 6 23 -4 16 -10
29 -20 29 -23 -1 -18 4 -23 11 -12 7 12 12 12 32 0 13 -7 26 -15 29 -18 6 -6
30 -12 48 -13 7 0 12 -13 12 -32 0 -17 -6 -37 -12 -44 -7 -8 -8 -11 -3 -8 6 3
10 -52 10 -156 0 -201 8 -282 37 -392 13 -52 20 -68 52 -138 14 -32 23 -63 20
-69 -4 -6 -3 -8 3 -5 16 10 34 -18 27 -39 -4 -14 -3 -16 4 -5 8 11 15 7 38
-16 31 -32 87 -64 144 -81 52 -15 102 -23 97 -14 -3 4 15 7 40 8 24 0 38 -3
31 -7 -6 -4 -16 -5 -20 -3 -4 3 -8 0 -8 -5 0 -17 15 -13 44 10 15 12 30 19 33
15 3 -3 20 5 37 17 17 12 32 20 33 17 1 -3 11 3 23 12 11 10 20 14 20 8 0 -5
-8 -14 -17 -19 -12 -7 -13 -10 -4 -11 7 0 11 -6 8 -14 -3 -8 1 -22 9 -33 14
-17 15 -17 7 2 -13 31 -9 53 12 70 11 9 14 14 8 10 -7 -3 -13 -2 -13 4 0 6 15
8 34 6 28 -4 35 -1 45 21 10 22 14 24 27 13 12 -10 17 -10 27 1 9 10 9 11 -1
5 -8 -4 -22 1 -34 12 -12 10 -18 12 -13 4 6 -10 4 -12 -5 -6 -9 5 -11 4 -6 -3
4 -7 2 -12 -4 -12 -6 0 -8 -5 -4 -12 5 -7 3 -8 -6 -3 -8 5 -11 4 -6 -3 7 -11
-20 -11 -29 1 -3 4 -2 5 1 3 3 -2 25 16 48 40 24 24 49 44 56 44 10 0 10 -3 0
-15 -7 -8 -16 -12 -21 -9 -5 3 -6 -2 -3 -10 3 -9 10 -16 16 -16 5 0 7 4 4 9
-3 5 1 14 8 20 10 8 16 9 21 1 3 -5 11 -10 17 -10 6 0 1 9 -11 19 -12 11 -18
22 -12 25 5 4 14 -2 20 -11 6 -10 11 -14 11 -10 0 4 -8 20 -17 34 -13 20 -14
28 -5 31 7 2 10 8 6 13 -3 5 0 9 6 9 6 0 9 4 6 8 -7 12 22 52 37 52 7 0 6 -4
-3 -10 -8 -5 -10 -10 -5 -10 6 1 19 7 29 15 20 15 14 19 -24 16 -10 0 -11 1
-2 5 6 3 10 10 6 15 -8 13 3 11 34 -7 25 -15 26 -15 7 1 -20 16 -20 16 4 36
21 17 22 22 10 30 -7 5 -17 9 -21 9 -11 0 0 43 14 51 13 9 28 3 28 -11 0 -5
-6 -7 -14 -4 -18 7 -30 -12 -15 -22 8 -4 9 -3 5 4 -4 7 -2 12 3 12 6 0 11 -6
11 -14 0 -17 27 -29 35 -15 4 5 1 8 -7 7 -9 -2 -12 8 -11 34 1 24 -3 38 -13
42 -8 3 -12 2 -9 -3 3 -5 0 -13 -6 -17 -9 -5 -10 0 -5 17 4 13 8 30 10 37 1 7
14 24 28 37 21 19 34 23 69 20 23 -3 45 -8 48 -12 3 -5 12 -8 19 -9 28 -2 32
-5 32 -21 0 -15 2 -16 10 -3 8 12 10 12 10 -5 0 -15 2 -17 9 -6 7 11 13 10 36
-5 15 -10 37 -20 49 -21 12 -2 28 -6 36 -10 33 -15 119 -21 148 -11 14 5 21 4
17 -1 -3 -5 -1 -12 5 -16 6 -4 7 -12 3 -18 -4 -7 0 -6 10 2 18 15 23 26 7 16
-5 -3 -10 -1 -10 4 0 6 7 11 15 11 23 0 22 0 65 15 22 8 40 12 40 8 0 -3 11 2
25 11 14 9 25 14 25 11 0 -4 14 4 32 16 17 13 29 18 25 12 -3 -5 5 -15 19 -21
21 -10 26 -9 31 6 3 9 16 26 29 37 22 19 22 21 5 21 -11 0 -17 -4 -15 -8 3 -4
1 -8 -5 -8 -6 0 -13 -11 -17 -24 -4 -16 -11 -23 -20 -19 -17 6 -18 29 -2 39 7
4 8 3 4 -5 -4 -6 22 19 58 56 36 37 66 72 66 79 0 6 9 19 20 29 10 9 19 20 18
24 -3 14 26 61 39 61 7 0 13 5 13 11 0 5 -5 7 -12 3 -8 -5 -9 -2 -5 10 4 10 7
22 7 27 0 6 5 7 12 3 6 -4 8 -3 5 3 -4 6 -4 25 -1 41 6 28 9 30 40 27 19 -1
36 0 39 4 2 4 -10 7 -28 7 -31 -1 -32 0 -29 38 1 22 8 44 15 48 9 6 9 10 -2
17 -9 6 -10 11 -2 15 6 4 11 2 11 -5 0 -8 5 -7 17 2 15 12 16 12 11 -3 -4 -10
-1 -19 8 -22 21 -8 24 -8 24 5 0 5 -4 7 -10 4 -5 -3 -10 0 -10 8 0 10 16 14
60 15 45 1 59 -2 53 -11 -5 -9 -3 -9 8 -1 8 5 30 11 49 13 32 3 33 2 20 -16
-14 -17 -14 -17 7 1 23 19 60 15 47 -5 -4 -8 -3 -9 5 -5 6 4 9 12 6 17 -4 5 1
9 10 9 9 0 14 -4 11 -8 -3 -5 1 -9 9 -9 8 0 12 3 10 7 -2 4 22 7 55 7 53 0 58
-2 54 -20 -2 -11 0 -16 4 -13 7 7 8 11 11 37 0 6 10 8 24 4 15 -4 18 -3 8 3
-9 7 -10 12 -2 16 6 4 9 12 6 17 -4 5 -1 9 6 9 8 0 8 4 -1 15 -7 8 -8 15 -3
15 7 0 8 15 3 40 -4 22 -4 40 1 40 5 0 4 11 -1 25 -7 17 -6 25 1 25 8 0 7 5
-1 15 -9 11 -9 15 -1 15 9 0 9 5 1 20 -8 15 -8 20 2 20 9 0 9 3 0 12 -9 9 -7
15 6 25 9 8 11 11 3 7 -11 -5 -13 -2 -9 14 4 12 3 22 -2 22 -4 0 -5 10 -3 23
8 42 -32 66 -114 68 -66 2 -72 4 -77 25 -9 34 -36 44 -121 45 -80 1 -99 -7
-109 -45 -5 -21 -12 -23 -78 -25 -59 -2 -77 -6 -95 -23 -22 -21 -23 -27 -23
-202 1 -123 5 -188 13 -203 12 -21 15 -23 38 -23 8 0 7 -5 -1 -15 -7 -9 -10
-18 -8 -21 8 -8 -36 -125 -72 -192 -80 -151 -214 -245 -365 -256 -68 -6 -169
15 -221 45 -157 90 -251 107 -342 60 -63 -32 -93 -75 -127 -181 -29 -90 -94
-208 -146 -261 -67 -70 -142 -102 -221 -96 -39 3 -66 11 -77 22 -9 10 -10 15
-4 11 9 -5 11 -2 6 9 -4 13 -7 14 -14 3 -6 -10 -11 -10 -21 0 -6 6 -8 12 -3
12 5 0 0 7 -11 16 -10 8 -12 12 -4 8 8 -4 5 3 -7 15 -20 19 -27 34 -21 44 1 1
-4 12 -10 24 -9 16 -9 24 -1 29 9 5 6 11 -6 21 -11 7 -16 13 -12 13 4 0 3 10
-4 22 -10 18 -9 20 5 15 9 -4 16 -3 16 2 0 5 -8 11 -18 13 -18 5 -28 48 -11
48 6 0 7 -5 3 -12 -5 -7 -3 -8 6 -3 10 6 9 11 -5 21 -20 15 -13 49 8 41 8 -3
14 1 14 8 0 8 -7 11 -15 7 -10 -3 -13 -1 -8 6 3 6 2 13 -3 17 -6 3 -8 -3 -6
-15 2 -11 0 -20 -4 -20 -4 0 -7 20 -7 44 0 26 4 42 9 39 6 -4 7 -1 2 8 -14 21
-14 119 -1 112 6 -3 5 0 -1 8 -15 16 -17 39 -3 39 5 0 7 -8 4 -17 -5 -15 -3
-15 10 1 15 18 14 22 -6 43 -12 13 -17 23 -11 23 7 0 10 17 8 43 -2 23 -1 37
1 30 3 -7 11 -10 19 -7 7 3 16 1 20 -5 3 -6 14 -11 23 -10 12 0 9 3 -7 10 -23
9 -23 11 -8 26 16 16 18 16 32 -2 14 -19 15 -18 4 7 -7 15 -16 25 -20 22 -5
-3 -9 0 -9 6 0 6 -5 8 -11 5 -6 -4 -8 -14 -5 -22 4 -9 2 -11 -6 -7 -7 4 -8 3
-4 -4 4 -7 3 -12 -2 -12 -6 0 -13 7 -16 16 -3 8 -2 12 3 9 5 -3 12 4 16 15 5
16 12 19 27 14 13 -4 18 -2 14 4 -3 6 2 9 11 7 10 -1 25 4 33 11 13 11 20 11
40 1 14 -7 29 -15 35 -18 5 -2 9 -8 7 -12 -1 -5 2 -6 7 -2 14 8 1 37 -15 31
-7 -3 -18 3 -26 11 -11 14 -11 16 3 11 9 -4 20 2 28 14 9 14 15 17 25 9 7 -6
16 -8 19 -4 4 3 7 2 7 -4 0 -6 7 -14 16 -17 14 -5 15 -4 5 8 -9 11 -9 15 1 18
8 3 6 7 -6 11 -9 4 -15 3 -12 -1 3 -5 -1 -9 -9 -9 -21 0 -18 10 8 26 37 24 67
23 68 -2 0 -22 0 -22 10 1 5 15 13 21 21 16 7 -4 10 -4 6 0 -4 5 -3 19 2 32 6
15 5 26 -2 30 -7 5 -8 3 -3 -6 5 -9 4 -11 -3 -6 -8 5 -11 -1 -9 -16 1 -17 -3
-23 -21 -24 -12 -1 -25 3 -28 8 -3 4 -2 7 3 6 11 -3 78 64 75 75 -1 5 2 6 8 2
5 -3 10 0 10 8 0 8 11 26 24 40 13 14 21 29 17 33 -3 4 0 4 7 0 7 -4 12 -1 13
8 1 9 2 20 3 25 2 19 15 22 35 10 24 -15 41 -4 21 14 -10 9 -11 9 -6 0 4 -7 3
-13 -2 -13 -12 0 -33 25 -27 32 3 3 8 16 10 28 3 13 10 27 17 32 7 4 9 8 4 8
-5 0 -3 6 3 14 6 8 11 18 10 22 -4 26 2 43 15 38 8 -3 23 -1 33 6 17 10 17 11
-2 6 -33 -9 -45 5 -36 44 4 19 7 65 7 102 -1 60 0 65 16 57 14 -7 16 -6 12 6
-4 8 -1 15 5 15 6 0 11 5 11 11 0 8 -5 7 -15 -1 -11 -9 -19 -10 -26 -3 -8 8
-7 13 2 18 8 6 10 4 4 -5 -5 -8 -4 -11 2 -7 7 5 4 20 -8 44 -11 21 -17 43 -15
50 3 7 2 12 -2 11 -4 -1 -15 2 -25 7 -15 6 -16 10 -5 16 10 7 11 12 1 28 -9
14 -10 28 -3 46 6 16 6 25 0 25 -6 0 -10 5 -10 11 0 5 4 8 8 5 10 -6 9 24 0
40 -8 12 -6 34 5 52 5 7 4 12 -2 12 -6 0 -11 5 -11 11 0 5 4 8 8 5 10 -6 9 30
-1 40 -4 4 -2 13 4 21 9 10 8 13 0 13 -7 0 -9 5 -6 10 4 6 12 8 18 4 7 -3 5 1
-4 8 -19 16 -7 64 12 52 8 -4 9 -3 5 4 -4 6 -14 8 -23 5 -12 -5 -15 -2 -10 10
4 10 2 17 -5 17 -6 0 -9 3 -5 6 8 8 -24 43 -56 60 -37 20 -266 22 -277 3 -6
-9 -12 -8 -25 4 -20 21 -55 22 -80 3 -25 -18 -25 -75 1 -90 40 -24 64 -25 75
-5 9 18 12 18 25 4 9 -8 19 -13 24 -10 5 3 11 1 14 -4 3 -5 24 -8 46 -6 29 2
38 0 33 -8 -4 -8 -1 -8 9 1 9 7 35 11 64 9 l49 -3 2 -194 c2 -187 1 -196 -20
-218 -19 -20 -22 -39 -28 -160 -8 -145 -25 -214 -74 -298 -39 -67 -114 -135
-185 -168 -54 -25 -77 -30 -140 -31 -78 0 -185 28 -174 46 3 5 2 8 -3 7 -16
-4 -74 33 -67 44 4 6 3 8 -3 5 -10 -6 -83 72 -83 89 0 4 -8 16 -17 27 -17 19
-17 20 4 15 13 -4 26 -2 29 3 3 5 2 9 -3 8 -4 -1 -19 -1 -32 0 -18 1 -22 5
-16 19 15 36 16 46 4 27 -12 -18 -13 -17 -24 15 -8 23 -9 39 -2 48 6 8 6 12
-2 12 -7 0 -9 5 -6 10 3 6 2 10 -2 10 -5 0 -9 29 -9 64 -1 60 0 63 20 59 21
-4 21 -4 1 9 -11 7 -21 24 -23 38 -4 24 -3 25 12 5 15 -20 15 -20 9 3 -3 12
-13 22 -22 23 -11 0 -12 2 -3 6 10 4 10 8 0 21 -11 13 -11 15 2 8 8 -4 6 0 -4
8 -11 9 -16 16 -11 16 5 0 1 6 -9 13 -9 7 -19 27 -21 44 -3 27 -1 31 15 28 11
-2 22 0 25 4 2 5 -5 8 -18 7 -18 -1 -22 4 -23 32 -1 17 5 37 13 43 7 6 13 16
13 22 0 6 -6 2 -14 -8 -12 -16 -13 -7 -12 71 1 60 5 89 13 89 6 0 15 3 19 7 3
4 -3 6 -14 3 -19 -3 -21 0 -18 26 2 16 7 33 11 37 5 4 6 0 2 -9 -4 -13 -1 -16
14 -12 10 3 19 10 19 15 0 5 -4 6 -10 3 -5 -3 -10 -2 -10 3 0 12 109 13 132 1
15 -8 19 -8 13 0 -4 8 3 10 25 6 18 -3 29 -2 26 4 -4 5 3 7 16 3 14 -3 19 -2
14 7 -6 8 -1 8 18 0 14 -7 23 -16 19 -21 -3 -6 4 -5 14 1 11 6 23 8 26 5 3 -3
10 4 17 15 6 12 15 19 20 16 5 -3 12 0 16 6 4 8 3 9 -4 5 -8 -5 -12 3 -12 23
0 51 -64 75 -106 40 -9 -7 -14 -8 -14 -1 0 13 -114 19 -199 11z m2551 -905
c37 -26 55 -56 49 -83 -1 -8 2 -10 10 -5 9 5 11 1 7 -14 -4 -12 -2 -24 2 -27
11 -7 -18 -93 -40 -122 -10 -12 -20 -19 -24 -16 -3 3 -6 1 -6 -6 0 -8 -7 -11
-15 -7 -9 3 -15 0 -15 -10 0 -11 -6 -13 -21 -9 -12 4 -19 3 -16 -2 3 -5 -3
-10 -14 -10 -11 -1 -17 2 -14 8 4 5 1 9 -4 9 -6 0 -11 -4 -11 -9 0 -5 -8 -8
-17 -6 -10 2 -18 4 -18 5 0 1 -9 3 -20 5 -25 5 -98 82 -90 95 3 6 2 10 -3 10
-5 0 -9 8 -10 18 -11 106 27 168 128 206 30 11 105 -5 142 -30z m-292 16 c0
-5 0 -13 0 -17 0 -11 -32 -10 -47 0 -7 5 -10 13 -7 18 7 12 54 11 54 -1z m420
-3 c0 -8 -7 -14 -15 -14 -16 0 -19 9 -8 20 11 11 23 8 23 -6z m-2185 -667 c3
-6 -1 -7 -9 -4 -18 7 -21 14 -7 14 6 0 13 -4 16 -10z m705 -409 c0 -11 -29
-35 -35 -29 -10 9 7 38 21 38 8 0 14 -4 14 -9z m-115 -201 c-3 -5 -11 -10 -16
-10 -6 0 -7 5 -4 10 3 6 11 10 16 10 6 0 7 -4 4 -10z"/>
<path d="M8175 4441 c6 -11 4 -13 -8 -8 -10 4 -17 1 -17 -6 0 -15 -40 -42 -60
-39 -10 1 -11 -1 -2 -4 18 -8 15 -24 -5 -24 -15 0 -16 -2 -3 -10 14 -9 7 -15
-15 -10 -5 1 -4 -4 3 -11 14 -15 17 -63 2 -54 -5 3 -7 13 -4 23 5 13 4 14 -4
3 -7 -10 -2 -25 19 -54 23 -31 26 -43 17 -50 -10 -6 -9 -7 2 -4 8 2 27 -4 41
-14 24 -17 64 -24 115 -20 12 0 37 15 55 33 19 18 37 31 40 30 4 -1 4 8 1 20
-3 12 -1 19 4 16 5 -4 8 12 6 35 -2 23 -4 52 -5 64 -1 11 -5 19 -8 17 -8 -4
-35 26 -31 35 1 3 -1 6 -5 7 -25 2 -63 17 -63 24 0 5 -13 5 -29 0 -19 -5 -33
-4 -41 3 -10 9 -11 9 -5 -2z m96 -65 c17 -8 34 -37 42 -73 6 -26 -30 -85 -53
-89 -8 -2 -27 -6 -42 -9 -17 -3 -28 -1 -28 5 0 6 -4 9 -9 6 -11 -7 -47 34 -54
63 -6 25 16 86 36 98 6 4 7 0 3 -8 -4 -8 -1 -7 5 2 12 17 67 19 100 5z"/>
<path d="M8180 4345 c-7 -8 -16 -13 -20 -10 -5 3 -12 0 -16 -6 -4 -8 -3 -9 4
-5 16 10 15 -16 0 -33 -8 -9 -9 -11 -1 -7 6 3 15 -6 22 -24 5 -17 13 -30 16
-30 3 0 3 6 -1 13 -4 6 6 1 22 -13 15 -14 22 -17 15 -8 -12 16 -10 18 17 14
17 -2 31 -1 30 3 -2 21 4 31 20 31 11 0 13 3 6 8 -15 9 -21 43 -11 59 4 6 2
15 -4 19 -8 4 -9 3 -5 -4 4 -7 1 -12 -8 -12 -9 0 -16 5 -16 10 0 16 -56 12
-70 -5z"/>
<path d="M8106 4413 c-6 -14 -5 -15 5 -6 7 7 10 15 7 18 -3 3 -9 -2 -12 -12z"/>
<path d="M6090 5229 c0 -5 5 -7 10 -4 6 3 10 8 10 11 0 2 -4 4 -10 4 -5 0 -10
-5 -10 -11z"/>
<path d="M6374 5225 c1 -8 6 -18 11 -22 4 -4 5 -2 0 6 -6 10 -2 12 16 6 27 -8
24 -3 -8 14 -17 9 -21 8 -19 -4z"/>
<path d="M5985 5222 c-10 -7 -18 -32 -10 -32 2 0 9 9 15 20 12 22 11 24 -5 12z"/>
<path d="M5810 5212 c0 -5 7 -9 15 -9 8 0 12 4 9 9 -3 4 -9 8 -15 8 -5 0 -9
-4 -9 -8z"/>
<path d="M5853 5205 c0 -8 4 -12 9 -9 4 3 8 9 8 15 0 5 -4 9 -8 9 -5 0 -9 -7
-9 -15z"/>
<path d="M5914 5209 c-4 -7 -3 -9 4 -5 5 3 13 0 15 -6 4 -9 6 -10 6 -1 1 17
-16 25 -25 12z"/>
<path d="M6436 5212 c-3 -5 1 -9 9 -9 8 0 12 4 9 9 -3 4 -7 8 -9 8 -2 0 -6 -4
-9 -8z"/>
<path d="M6473 5205 c0 -8 4 -12 9 -9 5 3 6 10 3 15 -9 13 -12 11 -12 -6z"/>
<path d="M6530 5204 c6 -6 6 -15 2 -19 -4 -5 -1 -5 6 -1 7 4 10 11 7 16 -3 5
3 11 12 13 10 3 6 4 -9 4 -19 -1 -24 -5 -18 -13z"/>
<path d="M6590 5186 c7 -7 13 -7 20 0 6 6 3 10 -10 10 -13 0 -16 -4 -10 -10z"/>
<path d="M525 5108 c-233 -21 -388 -131 -470 -333 -26 -62 -29 -82 -29 -180 0
-89 4 -122 23 -175 23 -65 92 -178 118 -193 7 -5 11 -13 7 -18 -3 -5 0 -8 8
-7 7 2 12 -4 10 -12 -2 -8 0 -12 3 -8 10 10 47 -11 40 -22 -4 -6 1 -7 11 -3
14 5 16 3 11 -12 -6 -15 -5 -16 8 -5 12 10 16 8 25 -15 5 -14 14 -23 20 -20 5
3 10 8 10 11 0 3 -4 2 -10 -1 -6 -3 -10 -1 -10 4 0 16 18 13 28 -5 5 -9 13
-16 18 -16 5 0 8 -5 6 -11 -2 -6 4 -4 13 3 13 11 18 11 24 1 4 -6 12 -11 17
-10 23 4 35 -2 28 -13 -5 -9 -2 -9 9 1 20 16 23 1 5 -18 -11 -11 -9 -11 9 0
12 7 19 17 16 22 -3 5 3 5 13 0 11 -6 55 -9 99 -8 44 1 86 -3 93 -8 8 -6 12
-5 12 2 0 7 10 10 25 7 13 -3 27 0 31 5 3 5 14 7 24 4 10 -3 21 -2 24 4 3 5
17 8 31 6 14 -1 25 2 25 6 0 10 49 24 69 20 8 -1 10 2 5 11 -4 7 -4 10 1 6 4
-4 14 0 22 8 8 8 19 12 24 9 5 -4 9 -1 9 6 0 7 8 5 20 -6 20 -18 28 -41 11
-30 -6 3 -15 -5 -21 -17 -10 -21 -10 -21 3 -6 8 10 17 15 20 11 4 -3 9 2 13
11 3 9 10 13 15 10 5 -3 9 -2 8 3 -4 22 3 25 20 9 15 -14 21 -15 27 -4 4 7 4
10 -1 6 -4 -4 -14 -3 -22 3 -11 10 -10 14 4 24 10 8 15 17 10 21 -4 4 -20 -8
-36 -26 l-28 -34 -13 24 c-7 14 -9 22 -6 18 4 -3 16 2 27 13 10 10 28 19 39
19 11 0 20 5 20 11 0 6 9 8 23 3 12 -4 29 -7 37 -7 8 0 19 -5 23 -11 5 -6 6
-2 2 9 -4 11 -8 25 -8 32 0 7 -4 10 -9 7 -7 -5 -10 3 -7 22 0 4 -3 10 -8 13
-13 9 -73 88 -73 96 0 4 8 1 18 -6 15 -13 16 -12 3 3 -7 10 -17 15 -21 13 -5
-3 -17 8 -26 25 -10 16 -22 30 -26 30 -10 0 -22 -21 -25 -45 -4 -25 -42 -56
-109 -89 -75 -37 -157 -56 -239 -56 -130 0 -231 39 -302 119 -30 33 -34 40
-32 57 0 3 -8 12 -18 21 -10 8 -13 12 -8 9 6 -2 10 8 10 27 0 18 -7 32 -15 35
-9 2 -11 0 -5 -5 12 -9 14 -28 4 -37 -6 -6 -7 -3 -12 49 -1 17 -6 35 -10 42
-4 6 -3 14 2 17 5 3 7 22 5 41 -1 19 1 37 7 40 5 4 7 11 4 16 -4 5 0 9 7 9 9
0 10 2 1 8 -8 5 -8 12 2 25 11 16 13 15 11 -10 -1 -15 -5 -33 -9 -39 -4 -7 1
-18 11 -25 16 -13 16 -13 2 5 -14 18 -13 18 10 13 14 -4 19 -4 13 -1 -16 7
-17 31 -1 40 8 5 9 1 4 -12 -5 -14 -4 -16 5 -7 12 12 3 37 -11 28 -4 -2 -10 7
-13 22 -4 20 2 34 23 54 15 16 25 31 21 35 -3 4 0 4 7 0 7 -4 9 -12 6 -18 -4
-7 -2 -8 4 -4 6 4 9 13 6 20 -3 7 11 25 31 40 19 15 35 24 35 20 0 -3 7 -1 15
6 9 7 29 13 46 12 16 0 27 4 24 9 -4 5 -1 9 4 9 6 0 11 -3 11 -7 -1 -23 -40
-43 -40 -20 0 9 -2 9 -9 -1 -4 -8 -11 -13 -15 -13 -19 3 -27 0 -21 -8 6 -10
-21 -41 -35 -41 -5 0 -7 8 -3 18 5 14 3 14 -11 -3 -10 -11 -14 -14 -10 -6 5
10 3 12 -5 7 -9 -6 -9 -11 -1 -21 9 -10 7 -16 -8 -24 -11 -6 -22 -8 -25 -5 -3
3 -8 -4 -12 -17 -6 -17 -9 -19 -16 -8 -7 10 -8 8 -6 -9 2 -12 10 -28 17 -35
12 -10 12 -9 0 6 -12 16 -11 19 9 24 17 4 19 8 9 14 -10 7 -10 9 3 9 9 0 24 9
33 19 10 11 31 25 47 31 16 7 27 15 25 19 -3 4 5 13 16 20 19 12 20 11 14 -6
-5 -16 -5 -16 6 -2 13 16 19 19 39 19 5 0 7 5 4 10 -3 6 -1 10 5 10 6 0 9 4 5
9 -3 5 0 13 6 17 8 4 9 3 5 -4 -4 -7 -2 -12 3 -12 6 0 11 4 11 8 0 5 37 7 83
5 114 -5 109 -4 94 -21 -10 -13 -9 -14 10 -4 16 9 29 9 50 0 15 -6 34 -12 42
-14 8 -1 18 -9 22 -16 5 -7 9 -10 9 -6 0 16 98 -53 103 -72 3 -11 1 -18 -4
-14 -5 3 -6 -2 -3 -10 9 -23 34 -27 52 -9 9 9 17 20 17 24 0 9 52 82 77 109 9
10 14 21 11 23 -2 3 2 15 9 26 11 18 11 23 -1 30 -8 6 -21 5 -30 -1 -12 -7
-45 5 -137 51 -171 86 -273 106 -459 89z"/>
<path d="M5735 5110 c-3 -5 -1 -10 4 -10 6 0 11 5 11 10 0 6 -2 10 -4 10 -3 0
-8 -4 -11 -10z"/>
<path d="M5736 5043 c-6 -14 -5 -15 5 -6 7 7 10 15 7 18 -3 3 -9 -2 -12 -12z"/>
<path d="M6740 5036 c0 -2 7 -7 16 -10 8 -3 12 -2 9 4 -6 10 -25 14 -25 6z"/>
<path d="M6775 4990 c-3 -5 -1 -10 4 -10 6 0 11 5 11 10 0 6 -2 10 -4 10 -3 0
-8 -4 -11 -10z"/>
<path d="M3158 4939 c-14 -22 -17 -22 -396 -22 -398 -1 -424 -4 -366 -41 l24
-16 0 -360 0 -360 -25 -16 c-36 -23 -27 -37 26 -41 24 -1 63 -4 87 -6 23 -1
42 1 42 6 0 4 5 5 11 1 7 -4 25 -7 41 -6 19 0 26 -3 21 -11 -4 -7 0 -7 10 1 9
8 21 11 27 7 5 -3 10 -1 10 5 0 6 5 8 11 4 8 -5 6 -10 -5 -16 -9 -5 -21 -6
-26 -3 -24 15 -7 -4 18 -21 17 -11 23 -12 15 -3 -9 11 -6 18 14 33 l25 18 -12
-22 c-6 -12 -9 -24 -6 -28 3 -3 6 1 6 9 0 11 2 11 10 -1 7 -12 10 -12 10 -1 0
9 6 11 18 6 30 -13 70 -13 66 0 -3 6 -11 12 -19 12 -8 0 -11 -5 -8 -10 4 -7
-1 -7 -13 -2 -10 4 -26 8 -35 9 -10 0 -15 6 -12 14 4 9 9 10 16 3 14 -14 30
-14 21 0 -5 8 -2 9 11 2 10 -6 27 -8 38 -5 14 4 18 2 12 -7 -4 -7 5 -5 21 5
l29 18 -19 -22 c-19 -22 -19 -22 -1 -16 14 6 16 4 10 -7 -5 -8 -5 -11 1 -6 5
5 9 14 9 20 0 7 9 11 19 9 12 -2 15 1 11 8 -6 9 -2 9 12 1 11 -6 24 -7 28 -3
4 4 5 -4 1 -18 -5 -21 -3 -20 9 5 8 17 14 23 15 14 0 -25 24 -41 38 -27 8 8
16 8 29 -3 16 -13 17 -12 5 3 -8 10 -9 19 -3 22 5 3 12 0 14 -6 4 -10 6 -10 6
0 1 6 8 12 16 12 8 0 15 -6 15 -12 0 -10 2 -10 8 -1 11 17 74 14 68 -3 -3 -7
-1 -16 5 -19 5 -4 6 -11 3 -17 -5 -7 -2 -8 7 -2 8 5 22 7 33 5 11 -1 16 2 12
8 -4 6 -2 11 4 11 6 0 8 5 3 13 -10 16 -13 37 -5 37 4 0 7 18 7 40 0 22 -3 40
-7 40 -5 0 -8 5 -8 10 0 7 7 7 23 0 21 -11 21 -10 3 4 -13 10 -20 29 -20 53
-1 43 -29 59 -41 24 -3 -12 -14 -22 -23 -22 -80 -5 -479 -3 -476 3 3 5 0 8 -5
8 -6 0 -11 -5 -11 -11 0 -8 -4 -9 -13 0 -8 6 -16 9 -18 6 -3 -2 -5 7 -5 20 0
30 0 30 17 8 12 -14 12 -16 0 -8 -10 6 -12 4 -7 -4 5 -7 11 -10 14 -6 8 8 12
36 4 31 -4 -2 -13 2 -20 10 -7 8 -8 14 -2 14 5 0 10 5 10 11 0 5 -4 8 -8 5 -4
-3 -8 16 -7 42 0 40 3 47 20 47 11 -1 19 -5 18 -11 -1 -5 7 -15 17 -22 14 -9
19 -8 24 3 3 8 0 17 -6 21 -7 4 -8 3 -4 -4 4 -7 2 -12 -3 -12 -6 0 -11 6 -11
14 0 19 100 16 120 -4 8 -9 12 -11 8 -6 -12 16 -9 22 12 23 11 1 23 -3 26 -9
4 -7 2 -8 -4 -4 -7 4 -12 3 -12 -3 0 -5 8 -9 18 -9 9 0 24 -1 32 -4 8 -3 12
-3 7 -1 -4 3 -5 9 -2 14 4 5 -1 6 -9 3 -9 -3 -16 -2 -16 3 0 6 15 9 33 8 36
-2 77 -21 77 -35 0 -6 7 -10 16 -10 14 0 15 -2 3 -17 -13 -15 -12 -15 8 -2 12
7 18 16 14 19 -10 6 -7 57 4 84 5 11 5 17 -1 14 -5 -4 -10 9 -10 28 -1 28 1
32 13 23 11 -9 17 -9 26 1 9 10 9 11 -1 6 -20 -12 -42 17 -30 39 8 13 7 16 -1
11 -7 -5 -11 3 -11 23 0 38 -12 39 -35 5 l-16 -25 -163 2 c-126 2 -163 6 -163
16 0 7 4 13 9 13 4 0 8 -5 8 -11 0 -5 5 -7 11 -3 8 5 8 9 -1 14 -9 6 -9 9 1
14 8 3 3 3 -11 -1 -22 -5 -23 -4 -11 11 9 10 10 16 2 16 -6 0 -11 5 -11 11 0
6 10 8 23 5 12 -3 16 -3 9 0 -18 8 -4 24 16 18 14 -5 14 -4 3 4 -12 9 -12 13
-2 26 9 11 10 16 2 16 -6 0 -11 -6 -11 -12 0 -9 -4 -8 -10 2 -8 12 -10 10 -8
-9 2 -13 -3 -25 -10 -27 -7 -1 -8 0 -2 3 5 2 10 9 10 14 0 6 -4 8 -8 5 -4 -2
-8 4 -8 14 0 10 4 16 8 14 4 -3 8 -1 8 4 0 10 90 10 107 -1 6 -4 15 -2 18 4 5
7 15 0 27 -18 11 -15 17 -20 14 -10 -4 12 -2 17 6 15 7 -3 13 -10 13 -15 0 -6
4 -15 9 -20 5 -4 6 -3 2 4 -8 14 9 26 43 29 18 2 21 0 12 -9 -6 -6 -11 -15
-11 -21 0 -5 6 -1 14 9 18 24 11 38 -15 30 -10 -4 -19 -3 -19 2 0 20 41 10 60
-14 11 -14 20 -21 20 -15 0 6 -5 14 -10 17 -6 4 -7 11 -4 17 4 6 13 1 21 -13
8 -13 12 -16 9 -7 -6 22 11 33 28 19 7 -6 16 -8 20 -4 3 4 21 7 39 8 26 1 34
-3 43 -24 9 -22 11 -23 17 -8 4 11 3 16 -3 12 -6 -3 -7 1 -4 10 4 10 10 12 18
6 6 -5 15 -9 19 -8 5 1 14 -8 20 -20 9 -16 16 -20 27 -13 10 6 14 33 15 107 1
116 -3 143 -20 143 -7 0 -19 -10 -27 -21z m-300 -188 c2 -1 0 -6 -3 -11 -5 -8
-11 -7 -20 0 -8 7 -20 8 -26 4 -8 -4 -9 -3 -5 4 6 10 22 10 54 3z m137 -671
c-3 -5 -1 -10 4 -10 6 0 11 5 11 11 0 5 5 7 11 4 6 -5 4 -12 -8 -20 -13 -10
-20 -10 -25 -2 -7 11 -2 27 8 27 3 0 2 -4 -1 -10z m195 -30 c0 -5 -2 -10 -4
-10 -3 0 -8 5 -11 10 -3 6 -1 10 4 10 6 0 11 -4 11 -10z"/>
<path d="M3715 4928 c-195 -25 -335 -140 -381 -313 -25 -92 -13 -230 26 -305
32 -62 68 -109 103 -134 20 -15 34 -32 31 -38 -4 -6 -3 -8 3 -5 6 4 30 -3 54
-15 24 -12 47 -23 52 -24 4 -1 9 -3 12 -4 3 -1 10 -4 15 -5 6 -1 13 -4 18 -5
4 -1 16 -1 26 0 14 1 17 -3 13 -15 -5 -11 -3 -14 6 -8 16 10 127 11 121 1 -3
-5 3 -11 13 -15 10 -4 21 -11 25 -17 4 -6 6 -1 6 11 -1 12 -7 19 -15 16 -7 -3
-13 -1 -13 3 0 5 21 10 48 10 26 1 61 4 77 8 17 4 39 9 50 9 11 1 24 8 28 15
5 7 12 10 18 7 5 -4 9 -1 9 6 0 7 2 10 5 7 3 -3 2 -13 -1 -22 -5 -12 -9 -14
-14 -6 -5 8 -9 7 -13 -5 -4 -9 -3 -14 2 -10 5 3 12 -1 14 -7 4 -8 8 -4 12 9 4
13 11 21 15 18 4 -3 7 1 6 8 0 6 2 12 6 12 4 0 14 9 22 20 9 11 16 16 16 12 0
-5 13 1 29 12 l29 21 21 -27 c12 -16 18 -20 15 -10 -4 10 -2 17 4 15 9 -3 12
1 12 18 0 4 -6 1 -14 -5 -10 -9 -15 -8 -19 2 -4 10 4 13 28 13 32 -1 37 -9 22
-33 -4 -6 -2 -15 4 -19 7 -4 9 -3 5 4 -3 6 -2 13 4 17 6 4 8 11 5 16 -4 5 0 9
7 9 9 0 10 2 1 8 -6 4 -13 16 -15 27 -1 11 -12 28 -23 38 -11 10 -13 15 -5 11
8 -4 5 3 -8 15 -12 12 -19 27 -16 33 4 6 3 8 -3 5 -6 -4 -23 12 -37 34 -30 45
-49 47 -54 5 -9 -72 -229 -141 -362 -113 -25 5 -48 14 -51 19 -3 5 -9 9 -13 9
-17 -3 -25 1 -47 19 -13 11 -39 34 -56 52 -30 29 -31 33 -17 49 10 12 12 19 4
24 -6 3 -9 3 -8 -2 2 -4 -1 -8 -7 -8 -5 0 -9 3 -7 8 1 4 -2 7 -6 7 -5 0 -9 6
-10 13 0 6 -3 24 -6 40 -5 23 -1 30 26 48 23 14 27 19 13 17 -11 -2 -23 -7
-27 -13 -4 -5 -10 -6 -15 -2 -4 5 -3 11 3 15 5 4 9 14 9 22 -1 8 3 21 8 28 5
6 6 12 2 12 -4 0 -2 7 5 15 7 8 17 12 23 8 6 -4 8 0 4 11 -4 10 -1 19 8 22 8
4 12 11 8 18 -4 6 1 5 10 -3 18 -15 23 -26 7 -16 -5 3 -10 2 -10 -2 0 -5 9
-14 20 -21 12 -7 20 -8 20 -2 0 5 -5 10 -12 10 -6 0 -8 3 -5 6 3 4 2 15 -3 24
-10 19 10 47 23 33 4 -3 7 -1 7 5 0 6 6 9 13 6 15 -5 19 -34 5 -34 -4 0 -8 5
-8 11 0 8 -5 7 -15 -1 -10 -9 -12 -17 -6 -23 12 -12 77 25 73 43 -2 8 3 10 13
6 10 -4 19 2 26 18 7 14 18 23 28 21 9 -1 22 2 29 8 8 6 12 6 12 -1 0 -5 10
-8 22 -4 16 4 19 2 13 -9 -7 -11 -6 -12 6 -3 13 9 43 10 80 2 22 -5 50 -34 41
-43 -4 -5 -1 -5 6 -1 10 6 10 11 2 22 -7 7 16 0 49 -17 49 -25 63 -37 68 -59
7 -39 29 -45 49 -15 17 25 44 34 44 14 0 -6 -7 -8 -17 -4 -15 5 -16 4 -5 -7
11 -11 16 -10 27 5 13 18 13 18 18 0 5 -16 6 -16 5 2 -1 35 2 40 13 25 7 -10
9 -11 7 -2 -2 8 -7 13 -12 12 -5 -1 -13 4 -18 12 -7 10 -8 8 -4 -5 4 -12 2
-16 -6 -11 -7 5 -8 3 -3 -6 5 -9 4 -11 -3 -6 -16 9 27 85 48 87 10 0 11 2 3 6
-10 3 -10 9 0 24 14 23 -3 40 -32 32 -10 -2 -58 16 -107 41 -139 71 -260 92
-409 74z m36 -195 c-7 -12 -10 -13 -11 -4 0 11 -3 11 -15 1 -8 -6 -13 -17 -12
-22 1 -6 -5 -13 -13 -16 -8 -2 -12 -1 -8 3 4 5 3 14 -3 21 -7 8 -6 14 2 20 8
4 9 3 5 -4 -10 -17 3 -15 21 3 8 8 19 13 24 10 5 -4 9 -1 9 6 0 7 3 10 6 6 3
-3 1 -14 -5 -24z"/>
<path d="M5736 4923 c-6 -14 -5 -15 5 -6 7 7 10 15 7 18 -3 3 -9 -2 -12 -12z"/>
<path d="M580 4899 c-23 -18 -23 -19 -2 -9 13 6 22 7 22 1 0 -12 27 -8 42 7
18 18 28 15 21 -5 -6 -19 -5 -18 14 7 10 13 8 16 -7 17 -10 1 -24 -5 -30 -12
-12 -15 -44 -9 -34 6 8 14 1 11 -26 -12z"/>
<path d="M707 4904 c2 -7 11 -10 19 -7 19 7 18 10 -5 16 -13 3 -18 1 -14 -9z"/>
<path d="M1290 4901 c0 -9 9 -22 20 -29 19 -12 20 -23 20 -372 0 -349 -1 -360
-20 -372 -36 -23 -25 -44 23 -45 23 -1 52 -4 65 -7 13 -3 22 0 22 7 0 8 3 8 8
2 11 -15 46 -19 36 -4 -5 8 -3 10 5 4 18 -11 71 -13 78 -2 3 4 13 1 23 -8 16
-15 18 -14 18 11 0 14 6 31 13 36 11 8 10 8 -4 4 -23 -7 -49 17 -53 50 -2 21
1 24 19 20 12 -3 16 -3 9 0 -6 3 -10 10 -7 14 3 5 0 12 -6 16 -8 5 -9 3 -4 -7
5 -8 4 -11 -1 -6 -4 4 -9 35 -9 67 -1 51 2 60 17 60 10 0 18 4 18 9 0 5 -8 8
-17 7 -13 -1 -17 8 -18 44 -1 25 0 39 2 32 3 -6 10 -9 16 -5 16 10 107 11 107
2 0 -5 -8 -13 -17 -18 -10 -6 -13 -11 -6 -11 6 0 15 5 18 10 10 16 25 12 26
-7 0 -12 2 -13 6 -5 3 7 0 18 -5 25 -8 9 7 12 64 12 75 1 82 -2 64 -23 -7 -9
-7 -9 2 -2 17 14 28 12 28 -4 0 -20 17 -29 26 -15 4 7 3 10 -2 6 -5 -3 -14 5
-20 17 -9 20 -7 21 23 22 31 0 37 -5 34 -33 -1 -7 2 -13 7 -13 5 0 9 10 8 22
-1 18 5 23 32 24 27 1 30 -1 21 -12 -9 -12 -15 -12 -28 -2 -14 11 -14 11 -3
-4 10 -13 10 -17 0 -21 -9 -4 -9 -6 -1 -6 6 -1 15 4 18 9 16 26 21 0 23 -116
1 -127 -6 -164 -33 -164 -8 0 -15 -8 -15 -18 0 -16 8 -19 45 -18 41 1 56 -6
38 -17 -5 -2 -3 -2 4 -1 7 2 19 -4 28 -12 8 -9 15 -11 15 -4 0 6 -7 13 -15 16
-8 4 -15 10 -15 16 0 5 5 6 11 3 17 -11 59 -13 59 -2 0 5 7 4 16 -4 13 -10 17
-10 24 0 5 8 10 9 14 3 3 -6 0 -13 -6 -15 -10 -4 -10 -6 0 -6 6 -1 12 -7 12
-15 0 -8 4 -18 10 -21 7 -4 7 2 1 18 -11 29 -6 37 23 36 21 0 21 -1 1 -9 -17
-7 -17 -9 -3 -9 15 -1 57 46 47 52 -2 1 -13 7 -24 13 -16 9 -20 20 -18 55 2
33 0 40 -8 29 -9 -12 -9 -11 -3 5 8 22 9 43 3 64 -2 7 2 16 10 18 9 4 11 0 7
-13 -4 -13 1 -23 12 -31 15 -9 19 -8 19 2 0 8 -5 13 -11 12 -13 -3 -14 34 -1
52 8 12 6 12 -12 3 -17 -9 -22 -9 -27 3 -3 8 -2 17 3 19 10 6 8 37 -4 55 -5 9
-4 12 2 8 6 -4 10 7 11 25 1 25 -2 29 -10 18 -8 -12 -8 -11 -3 5 4 11 9 26 12
33 3 6 0 12 -7 12 -9 0 -10 3 -1 13 6 8 7 18 3 22 -4 5 0 4 8 0 9 -5 8 0 -4
14 -16 17 -16 20 -4 16 21 -8 34 13 18 28 -10 9 -12 8 -7 -5 4 -12 2 -15 -9
-11 -10 4 -12 9 -4 18 5 6 6 16 2 20 -4 5 0 4 8 0 9 -5 8 0 -4 14 -16 17 -16
20 -4 16 21 -8 34 13 18 28 -10 9 -12 8 -7 -5 4 -12 2 -15 -9 -11 -9 3 -11 9
-5 17 12 14 12 28 -1 44 -8 9 -7 11 6 6 9 -3 16 -1 16 5 0 6 -5 11 -11 11 -5
0 -8 4 -5 9 4 5 0 12 -6 14 -10 4 -10 6 0 6 10 1 10 6 2 21 -9 16 -8 19 7 14
16 -5 16 -4 -1 10 -11 9 -15 16 -8 16 6 0 21 -10 33 -22 l21 -23 -13 25 c-7
14 -12 28 -11 32 1 4 -5 5 -13 2 -9 -4 -15 0 -15 9 0 9 9 19 20 22 11 3 20 14
20 24 0 17 -12 18 -150 17 -137 0 -150 -2 -150 -18 0 -10 7 -18 15 -18 26 0
32 -33 31 -155 l-1 -120 -207 -1 c-166 0 -208 2 -208 13 0 7 -4 13 -10 13 -5
0 -7 -8 -4 -17 5 -15 4 -15 -4 -3 -6 8 -9 35 -7 60 4 63 4 62 13 56 4 -2 14 0
22 5 13 9 13 10 0 8 -28 -3 -40 1 -40 12 0 6 6 9 13 6 8 -3 20 -1 28 5 11 8
11 9 -3 5 -23 -8 -36 12 -34 53 2 42 12 60 32 60 9 0 14 7 12 18 -3 15 -19 17
-151 18 -128 1 -147 -1 -147 -15z"/>
<path d="M4358 4909 c-10 -7 -6 -14 14 -31 l28 -23 -3 -360 -2 -360 -23 -10
c-12 -5 -21 -17 -20 -25 3 -12 20 -15 80 -15 60 0 74 -3 66 -12 -7 -9 -7 -13
1 -13 7 0 10 -4 7 -8 -3 -5 1 -9 9 -9 11 0 12 4 4 13 -6 8 -6 14 0 18 5 3 11
2 13 -3 1 -5 10 -11 18 -13 8 -2 18 -7 23 -13 4 -6 10 -5 16 4 5 8 14 10 21 6
8 -5 11 -4 6 3 -3 6 -20 9 -36 7 -16 -2 -33 1 -36 7 -5 7 2 9 20 6 14 -3 26
-1 26 4 0 4 11 1 26 -8 16 -11 23 -23 19 -33 -5 -13 -4 -14 6 -3 10 9 10 15 1
24 -20 20 -13 32 8 13 11 -10 20 -13 20 -7 0 7 -4 12 -8 12 -4 0 -8 12 -8 27
1 15 -5 28 -14 30 -13 4 -13 3 0 -6 9 -7 10 -11 3 -11 -6 0 -15 5 -19 12 -12
18 -12 181 -1 196 6 8 6 12 -2 12 -22 0 -10 19 43 63 l53 46 29 -31 c16 -17
22 -27 14 -23 -8 4 0 -5 18 -22 17 -16 32 -36 32 -43 0 -7 3 -10 7 -7 7 8 39
-34 35 -46 -1 -4 4 -6 10 -5 7 2 12 -5 12 -14 -1 -10 3 -16 10 -15 6 1 10 -4
8 -11 -1 -8 2 -11 6 -8 5 3 18 -6 28 -20 11 -15 27 -35 38 -44 18 -18 18 -19
-3 -32 -12 -7 -21 -20 -21 -29 0 -12 10 -15 45 -15 27 1 47 -4 50 -11 2 -7 10
-13 17 -13 9 0 8 3 -2 10 -11 7 -1 9 33 7 26 -1 47 1 47 6 0 5 6 4 14 -2 10
-8 16 -9 21 -1 3 6 12 7 18 3 7 -4 21 -7 31 -8 11 0 21 -6 24 -14 3 -10 0 -11
-9 -5 -12 7 -12 5 0 -9 18 -22 20 -22 16 8 -2 22 1 25 31 25 27 0 34 4 34 20
0 11 -6 20 -14 20 -20 0 -77 50 -70 61 3 5 0 8 -8 7 -7 -2 -12 4 -10 12 2 8 1
12 -3 8 -4 -4 -17 2 -29 13 -11 11 -20 21 -18 22 2 1 -28 36 -67 76 -38 41
-68 78 -65 82 2 4 -3 10 -12 13 -8 3 -12 11 -9 16 4 6 3 9 -2 8 -10 -3 -53 33
-53 45 0 5 -11 18 -25 28 -15 13 -22 26 -18 36 4 10 2 14 -4 10 -6 -4 -16 0
-23 8 -7 8 -10 16 -6 16 3 1 12 2 19 3 6 1 11 8 9 16 -2 8 -1 12 2 9 4 -3 23
9 43 27 20 18 40 31 45 28 4 -3 11 2 14 10 8 20 21 21 21 1 0 -8 -5 -11 -10
-8 -6 3 -7 1 -3 -5 4 -6 13 -9 21 -5 11 4 14 0 9 -13 -4 -11 7 0 24 23 38 50
57 64 47 34 -4 -14 -2 -21 6 -21 7 0 9 3 6 6 -3 4 -2 15 4 26 9 16 13 17 27 6
15 -11 16 -11 4 4 -11 14 -10 19 9 32 12 8 27 12 33 9 6 -3 5 0 -1 8 -18 18
-16 34 2 19 8 -7 16 -10 16 -6 1 3 3 11 4 16 1 6 3 15 4 21 0 5 6 7 11 4 6 -4
7 -11 4 -17 -4 -7 -2 -8 4 -4 11 7 6 36 -7 36 -4 0 -16 -7 -27 -15 -12 -8 -25
-11 -29 -7 -5 4 -5 1 0 -7 6 -10 4 -12 -4 -6 -10 6 -11 3 -1 -15 11 -20 10
-21 -8 -16 -11 4 -23 2 -27 -4 -3 -6 -11 -7 -17 -4 -7 5 -8 2 -3 -6 6 -9 4
-11 -5 -5 -9 6 -11 4 -5 -5 5 -9 4 -11 -3 -6 -8 5 -10 1 -5 -10 5 -13 3 -16
-10 -11 -11 4 -14 2 -10 -9 4 -11 -1 -14 -21 -10 -23 4 -25 2 -16 -14 13 -25
13 -30 -3 -24 -25 9 -14 58 14 59 3 0 20 14 37 30 18 17 34 28 36 25 2 -3 14
7 26 23 12 15 28 27 36 27 8 0 13 6 11 13 -1 6 6 11 15 11 10 -1 16 3 15 10
-1 6 10 11 24 11 23 -1 26 2 19 20 -7 19 -16 20 -194 21 -169 0 -186 -1 -186
-17 0 -9 9 -19 20 -22 41 -11 31 -23 -105 -131 -60 -48 -118 -94 -128 -102
-10 -8 -23 -12 -29 -8 -7 4 -8 3 -4 -4 4 -7 1 -12 -7 -12 -8 0 -18 -9 -23 -21
-6 -14 -9 18 -9 99 0 66 3 118 7 115 5 -2 5 -9 2 -15 -4 -7 -2 -8 4 -4 6 4 8
14 5 23 -4 11 -3 14 5 9 7 -4 12 -2 12 4 0 7 -8 9 -19 5 -13 -4 -19 -1 -17 7
3 21 17 39 26 33 10 -6 20 19 12 32 -8 12 -275 14 -294 2z m859 -104 c0 -8 -4
-12 -9 -9 -5 3 -6 10 -3 15 9 13 12 11 12 -6z m-69 -60 c-12 -14 -24 -23 -26
-20 -6 6 28 45 39 45 5 0 -1 -11 -13 -25z"/>
<path d="M6880 4899 c0 -10 9 -21 20 -24 11 -4 21 -16 21 -28 4 -61 4 -684 1
-699 -2 -10 -13 -20 -23 -23 -10 -4 -19 -15 -19 -25 0 -15 7 -18 38 -17 21 1
36 -3 35 -9 -1 -6 4 -11 12 -11 8 0 11 7 7 16 -5 14 -3 14 11 3 8 -8 13 -21
10 -30 -4 -14 -3 -14 5 -3 6 8 9 19 8 25 -2 6 -1 7 2 3 2 -4 11 -2 20 5 13 11
14 10 4 -8 -9 -18 -8 -24 6 -35 15 -12 16 -12 5 2 -11 13 -9 19 7 34 11 10 20
14 20 9 0 -5 25 -9 55 -9 30 0 55 3 55 7 0 4 10 5 21 3 12 -3 18 -1 15 3 -4 4
-13 7 -19 7 -7 1 -11 6 -10 13 2 7 -5 12 -15 12 -14 0 -12 4 8 21 23 19 23 19
2 9 -26 -13 -46 -4 -38 16 3 7 1 16 -4 19 -14 9 6 42 30 50 11 3 20 11 20 16
0 5 -12 2 -27 -8 -26 -17 -26 -17 -21 3 3 12 1 29 -5 39 -8 15 -7 17 8 11 15
-5 16 -4 5 9 -7 8 -9 15 -5 15 4 0 1 8 -6 17 -12 14 -12 16 0 8 11 -6 13 -4 8
9 -5 12 -3 15 6 11 6 -4 3 1 -7 9 -11 9 -14 16 -7 16 7 0 10 3 8 8 -3 4 33 7
79 8 46 0 84 -3 84 -8 0 -4 5 -8 11 -8 5 0 8 4 5 8 -3 5 44 8 105 7 70 -1 109
3 109 10 0 5 5 3 10 -5 6 -10 10 -11 10 -2 0 6 5 12 10 12 7 0 7 -7 0 -22 -11
-22 -10 -22 4 -4 9 11 16 23 16 28 0 4 3 7 8 6 4 -1 16 3 28 9 14 8 25 8 35 1
11 -8 10 -8 -6 -3 -11 3 -16 3 -12 -2 5 -4 26 -8 47 -9 l39 -1 -22 18 c-12 10
-17 18 -12 19 6 0 16 -5 23 -12 9 -9 12 -9 12 0 0 7 -5 12 -11 12 -5 0 -7 5
-4 10 5 8 12 7 23 -2 12 -10 14 -10 8 0 -4 6 -3 12 3 12 6 0 7 7 4 17 -4 10
-2 14 4 10 13 -8 26 20 17 35 -3 5 2 8 12 6 13 -2 18 4 19 24 1 15 -2 25 -7
22 -4 -3 -8 2 -8 11 0 10 5 13 12 9 7 -5 8 -3 3 6 -6 10 -4 12 11 6 14 -5 16
-4 7 5 -9 9 -16 8 -30 -2 -19 -15 -29 -39 -15 -39 5 0 9 -7 9 -15 0 -9 -6 -14
-13 -11 -9 3 -11 -3 -8 -20 4 -22 -4 -29 -29 -25 -5 1 -6 -9 -2 -21 4 -16 3
-19 -3 -10 -7 11 -10 10 -16 -3 -3 -9 -10 -13 -16 -10 -9 6 -14 -8 -11 -27 1
-9 -13 -11 -22 -2 -7 7 24 44 33 39 3 -2 14 12 25 31 10 19 22 34 27 34 5 0 7
4 3 9 -3 5 -1 12 4 15 5 4 8 17 5 30 -2 15 2 26 11 30 17 6 20 26 4 26 -5 0
-7 -5 -3 -12 4 -7 3 -8 -5 -4 -8 6 -9 12 -2 20 6 7 8 16 4 19 -3 4 -8 19 -9
33 -3 25 -2 25 13 8 11 -14 11 -12 -1 6 -9 14 -19 33 -23 43 -3 9 -9 17 -14
17 -5 0 -9 5 -9 11 0 5 5 7 12 3 7 -4 8 -3 4 5 -4 6 -11 9 -16 6 -5 -3 -14 4
-20 15 -13 24 -90 64 -145 75 -22 5 -185 9 -362 10 -305 2 -323 1 -323 -16z
m527 -162 c6 -4 14 -1 16 5 3 8 6 6 6 -4 1 -10 5 -18 11 -18 5 0 8 6 6 13 -1
6 -1 9 1 6 2 -3 15 -4 28 -1 15 2 25 0 25 -7 0 -7 -4 -9 -10 -6 -6 3 -7 -1 -4
-10 6 -14 8 -14 21 2 14 17 14 17 9 -1 -6 -17 -5 -17 11 -5 11 9 14 10 9 2 -4
-7 -2 -13 3 -13 14 0 14 -55 1 -80 -6 -11 -29 -24 -51 -30 -47 -13 -351 -12
-343 1 3 5 1 9 -4 9 -5 0 -9 6 -9 14 0 9 6 12 16 8 14 -5 14 -4 2 11 -8 10
-11 20 -8 24 4 3 1 13 -6 21 -10 13 -9 14 8 5 24 -12 48 -6 38 10 -4 7 0 8 13
3 16 -6 17 -5 6 6 -11 11 -16 10 -26 -4 -12 -17 -14 -17 -29 0 -10 11 -13 22
-7 32 7 13 31 16 132 15 68 0 128 -4 135 -8z"/>
<path d="M7147 4726 c-9 -23 5 -25 37 -5 26 16 27 18 8 16 -12 -1 -22 -6 -22
-12 0 -5 -4 -4 -9 3 -7 11 -9 11 -14 -2z"/>
<path d="M7245 4730 c-3 -5 -1 -10 4 -10 6 0 11 5 11 10 0 6 -2 10 -4 10 -3 0
-8 -4 -11 -10z"/>
<path d="M7295 4729 c-4 -6 -5 -12 -2 -15 2 -3 7 2 10 11 7 17 1 20 -8 4z"/>
<path d="M7321 4726 c-9 -11 -9 -16 1 -22 7 -4 10 -4 6 1 -4 4 -3 14 3 22 6 7
9 13 6 13 -2 0 -10 -6 -16 -14z"/>
<path d="M7356 4727 c3 -10 9 -15 12 -12 3 3 0 11 -7 18 -10 9 -11 8 -5 -6z"/>
<path d="M7384 4720 c0 -13 4 -16 10 -10 7 7 7 13 0 20 -6 6 -10 3 -10 -10z"/>
<path d="M7410 4710 c0 -5 5 -10 11 -10 5 0 7 5 4 10 -3 6 -8 10 -11 10 -2 0
-4 -4 -4 -10z"/>
<path d="M7455 4710 c-3 -5 -1 -10 4 -10 6 0 11 5 11 10 0 6 -2 10 -4 10 -3 0
-8 -4 -11 -10z"/>
<path d="M7199 4643 c-13 -16 -12 -17 4 -4 16 13 21 21 13 21 -2 0 -10 -8 -17
-17z"/>
<path d="M7150 4606 c0 -2 9 -6 20 -9 11 -3 18 -1 14 4 -5 9 -34 13 -34 5z"/>
<path d="M776 4892 c-3 -5 1 -9 9 -9 8 0 12 4 9 9 -3 4 -7 8 -9 8 -2 0 -6 -4
-9 -8z"/>
<path d="M1160 4886 c0 -8 4 -17 9 -20 5 -4 7 3 4 14 -6 23 -13 26 -13 6z"/>
<path d="M3226 4892 c-3 -5 1 -9 9 -9 8 0 12 4 9 9 -3 4 -7 8 -9 8 -2 0 -6 -4
-9 -8z"/>
<path d="M1130 4881 c0 -6 0 -13 0 -16 -1 -2 -14 -18 -30 -34 -37 -36 -37 -43
-3 -59 20 -9 24 -9 15 0 -17 17 -15 33 3 18 10 -9 15 -9 15 -1 0 6 -4 11 -10
11 -5 0 -10 5 -10 11 0 5 6 7 13 3 8 -5 8 -2 -2 9 -16 20 -2 23 18 5 9 -9 12
-9 7 -1 -3 6 1 13 11 16 17 4 17 5 1 6 -11 1 -15 7 -12 15 3 8 1 17 -5 21 -6
3 -11 1 -11 -4z m-30 -71 c-6 -11 -13 -20 -16 -20 -2 0 0 9 6 20 6 11 13 20
16 20 2 0 0 -9 -6 -20z"/>
<path d="M426 4871 c-4 -5 -2 -12 3 -15 5 -4 12 -2 15 3 4 5 2 12 -3 15 -5 4
-12 2 -15 -3z"/>
<path d="M860 4860 c6 -11 15 -20 20 -20 6 0 2 9 -7 20 -10 11 -19 20 -21 20
-1 0 2 -9 8 -20z"/>
<path d="M6775 4870 c-3 -5 -1 -10 4 -10 6 0 11 5 11 10 0 6 -2 10 -4 10 -3 0
-8 -4 -11 -10z"/>
<path d="M550 4859 c0 -5 5 -7 10 -4 6 3 10 8 10 11 0 2 -4 4 -10 4 -5 0 -10
-5 -10 -11z"/>
<path d="M2228 4863 c7 -3 16 -2 19 1 4 3 -2 6 -13 5 -11 0 -14 -3 -6 -6z"/>
<path d="M3219 4863 c0 -5 -2 -16 -4 -26 -2 -11 -1 -16 3 -13 8 8 14 46 7 46
-3 0 -5 -3 -6 -7z"/>
<path d="M4654 4852 c4 -3 14 -7 22 -8 9 -1 13 0 10 4 -4 3 -14 7 -22 8 -9 1
-13 0 -10 -4z"/>
<path d="M1562 4830 c-18 -29 -15 -38 4 -12 9 13 14 25 12 27 -2 2 -9 -5 -16
-15z"/>
<path d="M480 4830 c-9 -6 -10 -10 -3 -10 6 0 15 5 18 10 8 12 4 12 -15 0z"/>
<path d="M1594 4833 c3 -3 -6 -17 -20 -30 -14 -12 -20 -23 -13 -23 6 0 20 11
31 25 11 14 25 22 31 18 7 -3 8 -2 4 2 -4 5 -15 10 -23 11 -9 1 -13 0 -10 -3z"/>
<path d="M5281 4826 c-8 -10 -9 -16 -1 -21 6 -4 9 -1 8 7 -2 7 3 12 10 10 8
-1 11 2 7 8 -8 13 -10 13 -24 -4z"/>
<path d="M3234 4815 c-4 -8 -9 -13 -13 -11 -3 2 -6 -9 -6 -25 -1 -34 5 -37 23
-9 7 12 18 18 24 14 7 -4 8 -3 4 5 -6 9 -11 9 -22 0 -17 -14 -18 -5 -4 22 6
10 8 19 5 19 -3 0 -8 -7 -11 -15z"/>
<path d="M4654 4809 c-3 -6 -1 -16 5 -22 9 -9 10 -7 5 7 -6 16 -4 18 10 13 10
-4 15 -3 11 3 -8 13 -22 13 -31 -1z"/>
<path d="M6790 4780 c13 -24 17 -25 17 -5 0 8 -6 16 -14 19 -11 4 -11 1 -3
-14z"/>
<path d="M2217 4770 c3 -11 7 -20 9 -20 2 0 4 9 4 20 0 11 -4 20 -9 20 -5 0
-7 -9 -4 -20z"/>
<path d="M4627 4767 c-3 -8 0 -14 7 -14 7 0 13 6 13 14 0 7 -4 13 -8 13 -4 0
-9 -6 -12 -13z"/>
<path d="M1060 4755 c-7 -9 -10 -18 -6 -22 3 -3 6 -1 6 6 0 7 5 9 12 5 7 -4 8
-3 4 4 -11 19 5 14 21 -5 13 -16 13 -16 3 5 -13 26 -23 28 -40 7z"/>
<path d="M2695 4726 c1 -12 6 -20 11 -18 5 2 8 9 7 16 -2 6 6 12 18 13 18 2
19 0 8 -15 -11 -14 -11 -15 0 -5 7 6 20 9 27 6 8 -3 14 0 14 6 0 6 -3 10 -7
10 -5 -1 -10 0 -13 1 -3 2 -19 3 -36 4 -25 2 -30 -1 -29 -18z"/>
<path d="M2980 4743 c5 -2 8 -9 4 -14 -3 -5 0 -9 6 -9 15 0 7 23 -8 26 -7 1
-8 0 -2 -3z"/>
<path d="M3025 4741 c-2 -4 0 -13 4 -20 6 -10 10 -9 14 3 4 9 12 16 19 16 9 0
9 -3 0 -12 -7 -7 -12 -17 -12 -22 0 -6 6 -2 12 9 7 11 11 22 10 25 -3 8 -42 8
-47 1z"/>
<path d="M3778 4732 c-9 -10 -8 -16 2 -22 17 -11 30 -4 30 16 0 17 5 17 30 4
15 -8 18 -7 14 3 -6 18 -61 17 -76 -1z m22 -8 c0 -8 -5 -12 -10 -9 -6 4 -8 11
-5 16 9 14 15 11 15 -7z"/>
<path d="M3915 4739 c-4 -6 -4 -13 -1 -16 3 -4 6 -1 6 6 0 7 5 9 12 5 7 -4 8
-3 4 4 -9 15 -13 15 -21 1z"/>
<path d="M3135 4729 c-4 -6 -5 -12 -2 -15 2 -3 7 2 10 11 7 17 1 20 -8 4z"/>
<path d="M3210 4728 c0 -4 4 -8 9 -8 6 0 12 4 15 8 3 5 -1 9 -9 9 -8 0 -15 -4
-15 -9z"/>
<path d="M3886 4725 c4 -8 8 -15 10 -15 2 0 4 7 4 15 0 8 -4 15 -10 15 -5 0
-7 -7 -4 -15z"/>
<path d="M3955 4730 c-3 -5 -1 -10 4 -10 6 0 11 5 11 10 0 6 -2 10 -4 10 -3 0
-8 -4 -11 -10z"/>
<path d="M4242 4719 c-8 -12 -9 -18 -4 -15 5 3 15 -1 22 -9 14 -17 30 -20 30
-4 0 5 -4 8 -9 4 -5 -3 -12 -1 -15 4 -4 5 2 12 11 14 17 4 17 5 0 6 -10 0 -15
6 -12 11 3 6 2 10 -2 10 -5 0 -14 -9 -21 -21z"/>
<path d="M4635 4719 c5 -16 4 -19 -5 -14 -9 5 -11 4 -6 -4 4 -6 11 -9 16 -6
11 7 9 45 -3 45 -5 0 -5 -10 -2 -21z"/>
<path d="M1574 4709 c-3 -6 -3 -13 0 -16 3 -4 6 -1 6 5 0 6 7 9 15 6 8 -4 15
-4 15 -1 0 11 -30 16 -36 6z"/>
<path d="M2219 4703 c-13 -16 -12 -17 4 -4 9 7 17 15 17 17 0 8 -8 3 -21 -13z"/>
<path d="M2255 4710 c-3 -5 -1 -10 4 -10 6 0 11 5 11 10 0 6 -2 10 -4 10 -3 0
-8 -4 -11 -10z"/>
<path d="M3235 4710 c-3 -5 -1 -10 4 -10 6 0 11 5 11 10 0 6 -2 10 -4 10 -3 0
-8 -4 -11 -10z"/>
<path d="M3191 4697 c-8 -10 -7 -14 4 -14 8 0 12 4 9 8 -2 4 2 10 8 12 8 4 9
6 2 6 -6 1 -17 -5 -23 -12z"/>
<path d="M3744 4692 c4 -3 14 -7 22 -8 9 -1 13 0 10 4 -4 3 -14 7 -22 8 -9 1
-13 0 -10 -4z"/>
<path d="M5806 4692 c-3 -5 1 -9 9 -9 8 0 12 4 9 9 -3 4 -7 8 -9 8 -2 0 -6 -4
-9 -8z"/>
<path d="M7770 4695 c0 -2 6 -8 13 -14 10 -8 14 -7 14 2 0 8 -6 14 -14 14 -7
0 -13 -1 -13 -2z"/>
<path d="M1575 4670 c3 -5 8 -10 11 -10 2 0 4 5 4 10 0 6 -5 10 -11 10 -5 0
-7 -4 -4 -10z"/>
<path d="M2676 4665 c-11 -8 -15 -15 -9 -15 6 0 16 7 23 15 16 19 11 19 -14 0z"/>
<path d="M3715 4670 c-3 -5 -1 -10 4 -10 6 0 11 5 11 10 0 6 -2 10 -4 10 -3 0
-8 -4 -11 -10z"/>
<path d="M4075 4670 c-3 -6 1 -7 9 -4 18 7 21 14 7 14 -6 0 -13 -4 -16 -10z"/>
<path d="M4629 4678 c-6 -22 -5 -39 3 -45 6 -3 8 -1 4 5 -3 5 0 13 6 15 10 4
10 6 0 6 -7 1 -10 6 -7 11 3 6 4 10 1 10 -3 0 -6 -1 -7 -2z"/>
<path d="M1553 4655 c0 -8 4 -15 9 -15 4 0 8 4 8 9 0 6 -4 12 -8 15 -5 3 -9
-1 -9 -9z"/>
<path d="M6794 4649 c0 -10 4 -19 8 -19 4 0 8 6 8 14 0 8 -4 17 -8 20 -4 2 -8
-4 -8 -15z"/>
<path d="M273 4642 c0 -12 5 -22 9 -22 11 0 10 12 -2 30 -7 12 -9 10 -7 -8z"/>
<path d="M4939 4615 c-24 -24 -47 -41 -53 -38 -5 3 -6 1 -2 -6 6 -9 11 -9 21
-1 10 8 14 7 18 -7 4 -17 5 -17 6 1 1 11 6 16 15 13 11 -4 13 -1 9 11 -6 15
-5 16 12 2 10 -8 16 -10 12 -4 -8 14 20 27 35 17 7 -3 8 -1 4 6 -4 6 -15 10
-23 9 -9 -2 -18 2 -20 8 -5 13 28 15 45 1 16 -13 16 1 -1 16 -22 21 -34 17
-78 -28z m31 -7 c0 -6 -3 -8 -7 -5 -3 4 -16 -1 -27 -10 -21 -18 -21 -18 -2 5
21 24 36 29 36 10z"/>
<path d="M6820 4656 c0 -2 7 -7 16 -10 8 -3 12 -2 9 4 -6 10 -25 14 -25 6z"/>
<path d="M5785 4639 c-4 -6 -5 -12 -2 -15 2 -3 7 2 10 11 7 17 1 20 -8 4z"/>
<path d="M2230 4630 c0 -5 5 -10 11 -10 5 0 7 5 4 10 -3 6 -8 10 -11 10 -2 0
-4 -4 -4 -10z"/>
<path d="M5805 4629 c-4 -6 -5 -12 -2 -15 2 -3 7 2 10 11 7 17 1 20 -8 4z"/>
<path d="M300 4621 c0 -5 -8 -11 -17 -13 -16 -3 -15 -5 2 -9 16 -5 21 -1 22
12 1 11 0 19 -3 19 -2 0 -4 -4 -4 -9z"/>
<path d="M3595 4622 c-3 -4 -11 -7 -16 -7 -5 0 -9 -4 -10 -10 0 -5 -5 -16 -11
-23 -8 -9 -6 -11 8 -6 18 5 18 5 1 -9 -16 -13 -16 -14 9 -14 14 0 22 2 18 6
-5 3 -10 14 -12 23 -2 12 3 16 18 13 13 -3 18 0 14 7 -5 7 -1 9 9 5 23 -9 21
0 -2 12 -10 6 -22 7 -26 3z"/>
<path d="M4177 4619 c7 -7 15 -10 18 -7 3 3 -2 9 -12 12 -14 6 -15 5 -6 -5z"/>
<path d="M4210 4612 c0 -4 10 -9 22 -9 18 -2 20 0 8 7 -18 12 -30 13 -30 2z"/>
<path d="M6811 4589 c25 -35 24 -47 -1 -24 -11 10 -20 13 -20 8 0 -6 8 -14 18
-18 38 -17 42 -13 20 23 -18 29 -19 34 -5 29 9 -3 19 -3 21 2 3 4 -8 7 -24 7
l-29 0 20 -27z"/>
<path d="M5790 4591 c0 -6 4 -12 8 -15 5 -3 9 1 9 9 0 8 -4 15 -9 15 -4 0 -8
-4 -8 -9z"/>
<path d="M265 4581 c-3 -5 0 -13 6 -17 8 -4 9 -3 5 4 -11 19 5 14 21 -5 13
-16 13 -16 3 5 -11 23 -25 28 -35 13z"/>
<path d="M7965 4570 c-10 -16 3 -27 27 -26 13 1 32 -5 43 -13 19 -15 19 -15 5
3 -9 12 -10 17 -2 12 17 -10 32 1 25 19 -6 17 -88 21 -98 5z"/>
<path d="M5787 4559 c7 -7 15 -10 18 -7 3 3 -2 9 -12 12 -14 6 -15 5 -6 -5z"/>
<path d="M2255 4550 c-3 -5 -1 -10 4 -10 6 0 11 5 11 10 0 6 -2 10 -4 10 -3 0
-8 -4 -11 -10z"/>
<path d="M271 4547 c2 -1 13 -9 24 -17 19 -14 19 -14 6 3 -7 9 -18 17 -24 17
-6 0 -8 -1 -6 -3z"/>
<path d="M6790 4541 c0 -9 30 -24 36 -18 2 1 -6 8 -16 15 -11 7 -20 8 -20 3z"/>
<path d="M4915 4530 c3 -5 8 -10 11 -10 2 0 4 5 4 10 0 6 -5 10 -11 10 -5 0
-7 -4 -4 -10z"/>
<path d="M5805 4530 c3 -5 8 -10 11 -10 2 0 4 5 4 10 0 6 -5 10 -11 10 -5 0
-7 -4 -4 -10z"/>
<path d="M2210 4511 c0 -5 5 -13 10 -16 6 -3 10 -2 10 4 0 5 -4 13 -10 16 -5
3 -10 2 -10 -4z"/>
<path d="M3576 4513 c-4 -5 -13 -8 -19 -8 -7 0 -12 -11 -12 -25 0 -14 4 -24 8
-22 4 1 13 2 20 2 6 0 4 5 -5 11 -10 5 -18 15 -18 21 0 6 7 5 17 -3 9 -8 14
-9 10 -2 -4 6 -1 13 5 16 7 2 10 7 7 11 -3 3 -9 3 -13 -1z"/>
<path d="M6787 4506 c-3 -8 -2 -18 3 -21 13 -8 24 15 12 27 -6 6 -11 4 -15 -6z"/>
<path d="M3033 4489 c11 -17 14 -16 20 7 1 4 -6 8 -15 10 -14 2 -15 -1 -5 -17z"/>
<path d="M5812 4501 c-11 -7 -11 -9 0 -14 9 -3 15 1 15 9 0 8 -1 14 -1 14 -1
0 -7 -4 -14 -9z"/>
<path d="M315 4470 c-3 -5 -1 -10 4 -10 6 0 11 5 11 10 0 6 -2 10 -4 10 -3 0
-8 -4 -11 -10z"/>
<path d="M2218 4473 c6 -2 10 -9 7 -14 -4 -5 1 -6 10 -2 13 5 14 7 3 14 -7 5
-17 8 -23 8 -5 0 -4 -3 3 -6z"/>
<path d="M7770 4469 c0 -5 5 -7 10 -4 6 3 10 8 10 11 0 2 -4 4 -10 4 -5 0 -10
-5 -10 -11z"/>
<path d="M3050 4450 c0 -5 5 -10 11 -10 5 0 7 5 4 10 -3 6 -8 10 -11 10 -2 0
-4 -4 -4 -10z"/>
<path d="M6816 4452 c-2 -4 -1 -14 4 -22 7 -11 9 -9 7 8 -1 24 -3 26 -11 14z"/>
<path d="M3024 4439 c-7 -12 17 -32 26 -22 3 3 -1 8 -8 10 -6 3 -10 9 -6 14 3
5 3 9 0 9 -3 0 -8 -5 -12 -11z"/>
<path d="M7753 4435 c0 -8 4 -12 9 -9 5 3 6 10 3 15 -9 13 -12 11 -12 -6z"/>
<path d="M4692 4417 c-17 -18 -19 -26 -10 -35 9 -9 9 -12 1 -12 -7 0 -15 5
-18 11 -5 7 -14 4 -27 -7 -17 -17 -18 -19 -3 -30 14 -11 14 -12 -1 -18 -12 -5
-14 -10 -5 -19 8 -10 7 -17 -2 -27 -10 -12 -9 -12 5 -2 13 10 17 10 22 0 3 -7
4 -4 3 7 -1 11 3 20 10 20 6 0 14 3 18 7 9 8 -16 5 -32 -5 -6 -4 -14 -3 -17 2
-3 5 1 11 8 14 10 4 13 15 10 31 -4 22 -2 23 20 13 13 -7 22 -16 19 -21 -4 -5
-1 -6 5 -2 9 5 9 13 2 26 -7 13 -7 21 0 25 5 3 10 1 10 -4 0 -17 17 -13 24 6
4 9 1 23 -7 30 -11 11 -17 10 -35 -10z m38 -9 c0 -5 -6 -8 -14 -5 -7 3 -20 0
-27 -6 -7 -7 -5 -2 5 10 18 22 36 22 36 1z"/>
<path d="M1569 4422 c-1 -4 -1 -10 0 -14 0 -5 -3 -8 -8 -8 -6 0 -9 -9 -8 -19
1 -17 3 -17 22 -5 12 8 25 11 30 7 4 -5 5 -3 1 4 -4 7 -12 10 -20 7 -7 -3 -13
2 -13 11 0 21 29 14 44 -10 7 -11 12 -15 12 -10 1 19 -17 39 -38 42 -12 1 -22
0 -22 -5z"/>
<path d="M1730 4422 c0 -4 11 -8 25 -8 28 0 24 8 -5 13 -11 2 -20 -1 -20 -5z"/>
<path d="M1793 4415 c-3 -9 -3 -18 -1 -21 3 -3 8 4 11 16 6 23 -1 27 -10 5z"/>
<path d="M1874 4419 c-4 -7 -3 -9 4 -5 5 3 13 0 15 -6 4 -9 6 -10 6 -1 1 17
-16 25 -25 12z"/>
<path d="M6775 4410 c-10 -11 -16 -20 -13 -20 3 0 15 9 28 20 13 11 19 20 13
20 -5 0 -18 -9 -28 -20z"/>
<path d="M7605 4410 c-15 -17 -16 -23 -5 -33 10 -9 11 -9 6 1 -8 14 18 45 29
34 5 -4 5 -1 1 6 -9 16 -10 16 -31 -8z"/>
<path d="M2222 4395 c-13 -28 2 -45 21 -26 9 9 8 11 -5 6 -22 -9 -23 -1 -3 19
8 8 11 17 7 20 -5 3 -14 -6 -20 -19z"/>
<path d="M2643 4403 c0 -9 4 -10 14 -2 7 6 13 12 13 14 0 1 -6 2 -13 2 -8 0
-14 -6 -14 -14z"/>
<path d="M2737 4413 c-8 -13 17 -25 38 -17 19 8 19 21 0 21 -8 0 -12 -4 -9 -9
3 -4 1 -8 -5 -8 -5 0 -11 5 -13 12 -3 8 -6 9 -11 1z"/>
<path d="M2920 4406 c0 -8 4 -17 9 -20 5 -4 7 3 4 14 -6 23 -13 26 -13 6z"/>
<path d="M7650 4401 c0 -6 4 -13 10 -16 6 -3 7 1 4 9 -7 18 -14 21 -14 7z"/>
<path d="M1735 4390 c3 -5 8 -10 11 -10 2 0 4 5 4 10 0 6 -5 10 -11 10 -5 0
-7 -4 -4 -10z"/>
<path d="M2955 4391 c-3 -5 -2 -12 3 -15 5 -3 9 1 9 9 0 17 -3 19 -12 6z"/>
<path d="M3050 4390 c0 -5 5 -10 11 -10 5 0 7 5 4 10 -3 6 -8 10 -11 10 -2 0
-4 -4 -4 -10z"/>
<path d="M7153 4387 c-3 -6 -1 -7 5 -3 7 4 12 1 12 -8 0 -8 4 -18 10 -21 6 -4
7 1 3 11 -4 12 -3 15 5 10 7 -4 10 -2 6 7 -6 16 -32 18 -41 4z"/>
<path d="M7216 4383 c-6 -14 -5 -15 5 -6 7 7 10 15 7 18 -3 3 -9 -2 -12 -12z"/>
<path d="M7260 4392 c0 -4 9 -8 19 -8 11 0 17 4 15 8 -3 4 -12 8 -20 8 -8 0
-14 -4 -14 -8z"/>
<path d="M7353 4382 c0 -12 5 -22 9 -22 11 0 10 12 -2 30 -7 12 -9 10 -7 -8z"/>
<path d="M7375 4390 c3 -5 8 -10 11 -10 2 0 4 5 4 10 0 6 -5 10 -11 10 -5 0
-7 -4 -4 -10z"/>
<path d="M7409 4388 c-11 -8 -11 -9 2 -5 9 3 22 0 28 -6 8 -8 11 -8 11 0 0 16
-25 23 -41 11z"/>
<path d="M7506 4392 c-3 -5 1 -9 9 -9 8 0 12 4 9 9 -3 4 -7 8 -9 8 -2 0 -6 -4
-9 -8z"/>
<path d="M2654 4382 c-5 -4 -10 -13 -12 -20 -2 -10 2 -10 20 -1 31 16 31 16
15 22 -8 3 -18 2 -23 -1z"/>
<path d="M3595 4380 c-4 -6 -11 -7 -17 -4 -7 4 -8 2 -4 -5 6 -9 11 -9 22 0 14
11 18 19 10 19 -3 0 -8 -5 -11 -10z"/>
<path d="M6774 4375 c-4 -8 -10 -13 -14 -10 -5 3 -11 1 -14 -4 -4 -5 2 -8 11
-6 10 2 22 4 26 4 5 1 6 5 3 10 -4 5 0 12 6 14 10 4 10 6 0 6 -7 1 -15 -6 -18
-14z"/>
<path d="M7241 4374 c0 -11 3 -14 6 -6 3 7 2 16 -1 19 -3 4 -6 -2 -5 -13z"/>
<path d="M7318 4373 c7 -3 16 -2 19 1 4 3 -2 6 -13 5 -11 0 -14 -3 -6 -6z"/>
<path d="M2695 4359 c-4 -6 -5 -12 -2 -15 2 -3 7 2 10 11 7 17 1 20 -8 4z"/>
<path d="M3029 4353 c-13 -16 -12 -17 4 -4 16 13 21 21 13 21 -2 0 -10 -8 -17
-17z"/>
<path d="M5860 4356 c0 -2 8 -10 18 -17 15 -13 16 -12 3 4 -13 16 -21 21 -21
13z"/>
<path d="M7199 4343 c-13 -17 -13 -17 6 -3 11 8 22 16 24 17 2 2 0 3 -6 3 -6
0 -17 -8 -24 -17z"/>
<path d="M2205 4340 c-3 -6 1 -7 9 -4 18 7 21 14 7 14 -6 0 -13 -4 -16 -10z"/>
<path d="M7159 4349 c0 -2 -2 -12 -4 -22 -2 -9 0 -15 5 -12 5 3 11 -1 14 -7 2
-7 4 -3 2 9 -2 20 -15 44 -17 32z"/>
<path d="M6737 4326 c-4 -10 -1 -13 9 -9 7 3 14 9 14 14 0 14 -17 10 -23 -5z"/>
<path d="M8555 4330 c3 -5 8 -10 11 -10 2 0 4 5 4 10 0 6 -5 10 -11 10 -5 0
-7 -4 -4 -10z"/>
<path d="M1556 4318 c3 -4 11 -5 19 -1 21 7 19 12 -4 10 -11 0 -18 -5 -15 -9z"/>
<path d="M6713 4274 c0 -7 4 -11 9 -8 4 3 8 -4 8 -15 0 -11 3 -22 8 -24 4 -3
7 5 7 18 0 13 -7 28 -16 33 -11 7 -16 6 -16 -4z"/>
<path d="M7165 4282 c-10 -7 -18 -32 -10 -32 2 0 9 9 15 20 12 22 11 24 -5 12z"/>
<path d="M1556 4271 c-3 -5 1 -11 9 -14 9 -4 12 -1 8 9 -6 16 -10 17 -17 5z"/>
<path d="M1587 4269 c7 -7 15 -10 18 -7 3 3 -2 9 -12 12 -14 6 -15 5 -6 -5z"/>
<path d="M4630 4251 c0 -6 4 -12 8 -15 5 -3 9 1 9 9 0 8 -4 15 -9 15 -4 0 -8
-4 -8 -9z"/>
<path d="M1574 4232 c4 -3 14 -7 22 -8 9 -1 13 0 10 4 -4 3 -14 7 -22 8 -9 1
-13 0 -10 -4z"/>
<path d="M2218 4233 c6 -2 10 -8 8 -12 -3 -4 1 -8 9 -8 11 0 12 4 4 14 -6 7
-17 13 -23 12 -7 0 -6 -2 2 -6z"/>
<path d="M6695 4229 c-12 -6 -27 -19 -34 -31 -7 -11 -8 -17 -2 -13 6 3 11 3
11 -2 -1 -11 -23 -40 -32 -41 -9 -2 -12 -12 -5 -18 3 -3 14 6 25 20 10 14 23
22 27 18 3 -4 6 -2 5 3 -5 24 1 27 16 9 15 -19 15 -19 6 0 -6 12 -6 29 -1 43
5 13 7 23 6 22 -1 0 -11 -5 -22 -10z m0 -28 c-3 -6 -11 -11 -17 -11 -6 0 -6 6
2 15 14 17 26 13 15 -4z"/>
<path d="M4620 4228 c0 -2 9 -11 20 -21 11 -9 20 -13 20 -7 0 5 -9 14 -20 20
-11 6 -20 9 -20 8z"/>
<path d="M7195 4220 c-4 -6 -11 -8 -16 -5 -5 4 -9 1 -9 -4 0 -16 16 -13 30 4
7 8 10 15 7 15 -3 0 -9 -5 -12 -10z"/>
<path d="M4287 4209 c7 -7 15 -10 18 -7 3 3 -2 9 -12 12 -14 6 -15 5 -6 -5z"/>
<path d="M1096 4201 c-4 -5 -2 -12 3 -15 5 -4 12 -2 15 3 4 5 2 12 -3 15 -5 4
-12 2 -15 -3z"/>
<path d="M7145 4201 c-3 -5 0 -13 6 -16 5 -4 8 -14 5 -22 -3 -8 -1 -11 4 -8
13 8 13 35 -1 35 -5 0 -7 5 -4 10 3 6 4 10 1 10 -3 0 -7 -4 -11 -9z"/>
<path d="M4629 4198 c-6 -20 -3 -45 6 -45 6 0 12 6 12 14 0 7 -4 13 -9 13 -5
0 -6 5 -3 10 3 6 4 10 1 10 -3 0 -6 -1 -7 -2z"/>
<path d="M1036 4174 c-20 -19 -20 -25 -2 -18 8 3 17 12 20 20 7 18 1 18 -18
-2z"/>
<path d="M1115 4169 c-4 -6 -4 -13 -1 -16 3 -4 6 -1 6 6 0 7 5 9 10 6 6 -3 10
-1 10 4 0 14 -17 14 -25 0z"/>
<path d="M2214 4155 c1 -8 6 -18 11 -22 4 -4 5 -3 2 4 -4 6 -2 13 5 15 8 3 6
6 -4 10 -10 4 -15 2 -14 -7z"/>
<path d="M3246 4162 c-3 -5 1 -9 9 -9 8 0 12 4 9 9 -3 4 -7 8 -9 8 -2 0 -6 -4
-9 -8z"/>
<path d="M4160 4150 c-13 -10 -29 -16 -34 -13 -5 3 -6 1 -2 -5 6 -11 -6 -16
-26 -13 -5 0 -8 -3 -8 -8 0 -11 28 -41 38 -41 3 0 1 5 -6 12 -21 21 -13 32 11
12 12 -10 16 -12 10 -4 -19 21 -16 35 4 19 13 -11 17 -11 20 -1 3 6 9 10 14 7
5 -4 6 2 2 12 -6 16 -5 17 13 3 18 -14 18 -14 4 4 -8 11 -13 21 -12 23 11 14
-7 9 -28 -7z m14 -15 c-9 -14 -21 -22 -26 -18 -6 3 -1 14 13 24 31 24 33 24
13 -6z"/>
<path d="M1575 4150 c3 -5 8 -10 11 -10 2 0 4 5 4 10 0 6 -5 10 -11 10 -5 0
-7 -4 -4 -10z"/>
<path d="M6690 4141 c0 -6 4 -13 10 -16 6 -3 7 1 4 9 -7 18 -14 21 -14 7z"/>
<path d="M946 4119 c-19 -27 -20 -39 -5 -39 5 0 7 5 4 10 -3 6 -1 10 5 10 6 0
8 5 5 10 -3 6 -1 10 4 10 6 0 11 -6 11 -12 0 -7 5 -5 11 5 6 10 8 21 5 24 -3
4 -6 0 -6 -8 0 -12 -2 -12 -9 0 -7 10 -12 8 -25 -10z"/>
<path d="M3249 4135 c-1 -3 -2 -15 -2 -27 -1 -13 -6 -26 -11 -30 -6 -4 -1 -6
11 -6 21 2 24 22 7 50 -5 8 -2 9 10 5 10 -4 15 -3 11 3 -6 10 -24 14 -26 5z"/>
<path d="M6659 4123 c-13 -16 -12 -17 4 -4 9 7 17 15 17 17 0 8 -8 3 -21 -13z"/>
<path d="M894 4096 c-3 -9 -10 -16 -16 -16 -5 0 -6 6 -2 13 5 7 0 6 -11 -3
-10 -8 -29 -15 -43 -15 -19 0 -26 -6 -27 -22 -1 -12 1 -22 4 -21 3 0 8 -1 11
-2 18 -7 41 -7 45 0 2 4 -5 7 -17 6 -12 0 -23 4 -25 11 -3 7 7 10 25 9 18 -1
28 2 26 9 -5 13 35 14 56 1 13 -9 13 -8 0 9 -8 10 -13 20 -12 22 2 3 1 7 -2
10 -3 3 -8 -2 -12 -11z"/>
<path d="M6630 4100 c0 -5 5 -10 11 -10 5 0 7 5 4 10 -3 6 -8 10 -11 10 -2 0
-4 -4 -4 -10z"/>
<path d="M2256 4077 c3 -10 9 -15 12 -12 3 3 0 11 -7 18 -10 9 -11 8 -5 -6z"/>
<path d="M3600 4079 c0 -5 -4 -8 -9 -4 -5 3 -12 1 -15 -4 -4 -5 2 -8 11 -7 15
3 33 26 19 26 -3 0 -6 -5 -6 -11z"/>
<path d="M360 4070 c-9 -6 -10 -10 -3 -10 6 0 15 5 18 10 8 12 4 12 -15 0z"/>
<path d="M1541 4058 c-7 -11 -8 -17 -2 -13 6 3 11 1 11 -4 0 -6 4 -11 9 -11 6
0 8 10 6 21 -6 30 -9 31 -24 7z"/>
<path d="M3626 4072 c-3 -5 1 -9 9 -9 8 0 12 4 9 9 -3 4 -7 8 -9 8 -2 0 -6 -4
-9 -8z"/>
<path d="M3989 4076 c0 -1 -2 -10 -3 -22 -2 -14 4 -20 18 -21 12 -1 15 1 9 4
-7 3 -13 9 -13 15 0 6 7 8 14 5 10 -4 13 -1 10 7 -4 10 -29 18 -35 12z"/>
<path d="M4095 4060 c10 -11 20 -20 23 -20 3 0 -3 9 -13 20 -10 11 -20 20 -23
20 -3 0 3 -9 13 -20z"/>
<path d="M5170 4071 c0 -5 -18 -8 -39 -6 -22 2 -47 -2 -56 -9 -15 -11 -14 -12
4 -12 11 0 18 3 16 6 -2 4 9 7 25 7 16 0 27 -3 25 -7 -2 -3 4 -6 14 -6 9 0 18
8 18 18 1 10 0 18 -3 18 -2 0 -4 -4 -4 -9z"/>
<path d="M410 4061 c0 -6 4 -13 10 -16 6 -3 7 1 4 9 -7 18 -14 21 -14 7z"/>
<path d="M744 4056 c-7 -19 -30 -21 -37 -3 -4 9 -6 9 -6 -1 -1 -21 31 -27 44
-9 13 18 30 24 20 7 -3 -5 -1 -10 5 -10 15 0 8 22 -8 28 -7 2 -15 -3 -18 -12z"/>
<path d="M1415 4060 c-3 -5 -1 -11 4 -14 5 -4 13 -1 17 5 4 8 9 7 16 -2 8 -12
9 -12 6 0 -5 16 -35 24 -43 11z"/>
<path d="M1505 4059 c-11 -16 -1 -19 13 -3 7 8 8 14 3 14 -5 0 -13 -5 -16 -11z"/>
<path d="M2080 4064 c0 -1 12 -10 28 -20 26 -17 27 -17 12 1 -14 17 -13 18 5
11 11 -4 16 -3 11 1 -6 7 -56 13 -56 7z"/>
<path d="M2506 4059 c2 -4 12 -5 21 -2 10 4 14 2 10 -4 -3 -5 0 -10 8 -10 8 0
11 5 8 10 -4 7 1 8 13 3 10 -4 23 -8 29 -9 5 -1 16 -9 23 -17 10 -12 10 -10 0
14 -7 15 -14 23 -16 17 -2 -6 -9 -8 -15 -4 -17 10 -88 12 -81 2z"/>
<path d="M2886 4057 c3 -10 9 -15 12 -12 3 3 0 11 -7 18 -10 9 -11 8 -5 -6z"/>
<path d="M3067 4057 c-3 -8 1 -14 8 -14 7 0 11 6 8 14 -3 7 -6 13 -8 13 -2 0
-5 -6 -8 -13z"/>
<path d="M3113 4049 c1 -12 5 -15 13 -9 6 6 13 7 16 4 3 -2 8 1 10 8 4 8 -3
14 -18 14 -16 1 -22 -3 -21 -17z"/>
<path d="M3656 4053 c-6 -14 -5 -15 5 -6 7 7 10 15 7 18 -3 3 -9 -2 -12 -12z"/>
<path d="M3946 4063 c-11 -11 -6 -23 9 -23 8 0 15 4 15 9 0 13 -16 22 -24 14z"/>
<path d="M4455 4059 c-11 -16 -1 -19 13 -3 7 8 8 14 3 14 -5 0 -13 -5 -16 -11z"/>
<path d="M5197 4063 c-4 -3 -7 -11 -7 -17 0 -6 5 -5 12 2 6 6 9 14 7 17 -3 3
-9 2 -12 -2z"/>
<path d="M5270 4060 c0 -6 7 -10 15 -10 8 0 15 2 15 4 0 2 -7 6 -15 10 -8 3
-15 1 -15 -4z"/>
<path d="M5313 4055 c0 -8 4 -12 9 -9 5 3 6 10 3 15 -9 13 -12 11 -12 -6z"/>
<path d="M7050 4059 c0 -15 15 -17 33 -4 16 11 15 13 -8 13 -14 0 -25 -4 -25
-9z"/>
<path d="M7142 4061 c-11 -7 -10 -10 3 -15 9 -3 24 -1 33 4 14 9 12 10 -7 4
-16 -4 -21 -3 -17 5 8 13 6 14 -12 2z"/>
<path d="M480 4050 c-9 -6 -10 -10 -3 -10 6 0 15 5 18 10 8 12 4 12 -15 0z"/>
<path d="M521 4046 c-21 -12 -22 -14 -5 -20 10 -4 15 -4 11 0 -4 4 1 13 11 20
22 17 14 17 -17 0z"/>
<path d="M557 4046 c-4 -11 -5 -21 -2 -24 3 -3 5 -1 5 4 0 12 70 11 90 -1 8
-4 12 -5 8 0 -4 4 -3 14 3 22 9 9 8 13 0 13 -6 0 -11 -4 -11 -10 0 -5 -5 -10
-11 -10 -5 0 -7 5 -3 11 5 8 1 8 -13 0 -14 -7 -24 -7 -33 2 -10 9 -11 9 -6 0
4 -7 3 -13 -3 -13 -5 0 -11 5 -13 12 -3 7 -7 5 -11 -6z"/>
<path d="M890 4049 c0 -5 5 -7 10 -4 6 3 10 8 10 11 0 2 -4 4 -10 4 -5 0 -10
-5 -10 -11z"/>
<path d="M1380 4056 c0 -2 8 -10 18 -17 15 -13 16 -12 3 4 -13 16 -21 21 -21
13z"/>
<path d="M3250 4056 c0 -2 7 -7 16 -10 8 -3 12 -2 9 4 -6 10 -25 14 -25 6z"/>
<path d="M3705 4050 c-2 -3 4 -6 13 -6 9 -1 26 -4 37 -8 14 -6 16 -5 6 2 -11
8 -11 10 0 14 8 3 -1 5 -19 5 -18 0 -35 -3 -37 -7z"/>
<path d="M3785 4049 c-4 -6 -5 -12 -2 -15 2 -3 7 2 10 11 7 17 1 20 -8 4z"/>
<path d="M3896 4045 c-3 -8 -1 -15 4 -15 6 0 10 7 10 15 0 8 -2 15 -4 15 -2 0
-6 -7 -10 -15z"/>
<path d="M6520 4050 c-13 -8 -12 -10 3 -10 9 0 17 5 17 10 0 12 -1 12 -20 0z"/>
<path d="M1475 4040 c-3 -5 -1 -10 4 -10 6 0 11 5 11 10 0 6 -2 10 -4 10 -3 0
-8 -4 -11 -10z"/>
<path d="M2035 4039 c-4 -6 -5 -12 -2 -15 2 -3 7 2 10 11 7 17 1 20 -8 4z"/>
<path d="M2197 4039 c7 -7 15 -10 18 -7 3 3 -2 9 -12 12 -14 6 -15 5 -6 -5z"/>
<path d="M2910 4040 c0 -5 5 -10 11 -10 5 0 7 5 4 10 -3 6 -8 10 -11 10 -2 0
-4 -4 -4 -10z"/>
<path d="M4035 4041 c-3 -5 -2 -12 3 -15 5 -3 9 1 9 9 0 17 -3 19 -12 6z"/>
<path d="M5035 4039 c-4 -6 -5 -12 -2 -15 2 -3 7 2 10 11 7 17 1 20 -8 4z"/>
<path d="M6949 4033 c-13 -16 -12 -17 4 -4 9 7 17 15 17 17 0 8 -8 3 -21 -13z"/>
<path d="M8100 4046 c0 -2 7 -7 16 -10 8 -3 12 -2 9 4 -6 10 -25 14 -25 6z"/>
<path d="M8150 4040 c-9 -6 -10 -10 -3 -10 6 0 15 5 18 10 8 12 4 12 -15 0z"/>
<path d="M670 4030 c0 -5 5 -10 10 -10 6 0 10 5 10 10 0 6 -4 10 -10 10 -5 0
-10 -4 -10 -10z"/>
<path d="M2080 4030 c-9 -6 -10 -10 -3 -10 6 0 15 5 18 10 8 12 4 12 -15 0z"/>
<path d="M3015 4030 c3 -5 8 -10 11 -10 2 0 4 5 4 10 0 6 -5 10 -11 10 -5 0
-7 -4 -4 -10z"/>
<path d="M3815 4020 c10 -11 20 -20 23 -20 3 0 -3 9 -13 20 -10 11 -20 20 -23
20 -3 0 3 -9 13 -20z"/>
<path d="M8390 4030 c0 -5 7 -7 15 -4 8 4 15 8 15 10 0 2 -7 4 -15 4 -8 0 -15
-4 -15 -10z"/>
<path d="M6541 4014 c0 -11 3 -14 6 -6 3 7 2 16 -1 19 -3 4 -6 -2 -5 -13z"/>
<path d="M704 4012 c4 -3 14 -7 22 -8 9 -1 13 0 10 4 -4 3 -14 7 -22 8 -9 1
-13 0 -10 -4z"/>
<path d="M2950 4016 c0 -2 7 -7 16 -10 8 -3 12 -2 9 4 -6 10 -25 14 -25 6z"/>
<path d="M3966 4008 c3 -5 10 -6 15 -3 13 9 11 12 -6 12 -8 0 -12 -4 -9 -9z"/>
<path d="M6457 4007 c-3 -9 -2 -18 3 -18 6 -1 14 -2 19 -3 5 0 13 -4 17 -8 4
-5 12 -8 18 -8 6 0 3 5 -6 11 -10 5 -21 9 -25 9 -4 -1 -10 6 -13 16 -6 16 -7
16 -13 1z"/>
<path d="M8035 4010 c-3 -5 -2 -10 4 -10 5 0 13 5 16 10 3 6 2 10 -4 10 -5 0
-13 -4 -16 -10z"/>
<path d="M8095 4011 c-3 -5 -2 -12 3 -15 5 -3 9 1 9 9 0 17 -3 19 -12 6z"/>
<path d="M6375 3970 c-3 -5 -3 -10 2 -10 4 0 1 -4 -7 -10 -9 -6 -17 -5 -22 3
-5 7 -8 8 -8 1 0 -5 7 -19 16 -30 8 -10 12 -13 9 -6 -8 16 24 43 43 37 19 -7
14 3 -7 15 -13 7 -22 7 -26 0z"/>
<path d="M6410 3929 c0 -5 5 -7 10 -4 6 3 10 8 10 11 0 2 -4 4 -10 4 -5 0 -10
-5 -10 -11z"/>
<path d="M8016 3897 c3 -10 9 -15 12 -12 3 3 0 11 -7 18 -10 9 -11 8 -5 -6z"/>
<path d="M6266 3864 c-7 -19 1 -34 17 -33 9 0 9 2 0 6 -7 2 -13 9 -13 14 0 6
5 7 10 4 6 -3 10 -2 10 4 0 18 -18 21 -24 5z"/>
<path d="M8055 3870 c3 -5 8 -10 11 -10 2 0 4 5 4 10 0 6 -5 10 -11 10 -5 0
-7 -4 -4 -10z"/>
<path d="M399 3865 c-1 0 -3 -9 -4 -21 -2 -17 3 -20 38 -20 l41 1 0 -65 c1
-36 -2 -73 -7 -82 -6 -15 -2 -18 26 -18 34 0 34 0 28 38 -3 20 -4 58 -1 83 5
46 5 46 42 45 32 -2 37 1 36 18 -2 20 -8 21 -100 21 -54 0 -99 0 -99 0z"/>
<path d="M8013 3862 c-7 -4 -9 -13 -4 -21 6 -9 10 -7 14 8 3 12 4 21 4 21 -1
0 -7 -4 -14 -8z"/>
<path d="M910 3823 l-75 -4 0 -79 0 -80 30 -1 c142 -4 135 -5 135 16 0 18 -5
20 -60 17 -55 -3 -60 -2 -60 16 0 17 6 20 40 18 35 -2 39 0 38 19 -2 20 -6 22
-40 17 -30 -4 -38 -1 -38 11 0 12 12 15 58 14 51 0 57 2 58 22 1 11 -1 20 -5
19 -3 -1 -40 -4 -81 -5z"/>
<path d="M1384 3823 l-81 -4 6 -42 c4 -23 4 -59 0 -79 -7 -43 -17 -40 136 -40
103 0 103 0 101 20 -1 13 8 18 37 20 31 3 39 -1 45 -18 8 -21 15 -22 118 -22
60 0 110 3 112 6 9 24 -2 31 -50 31 l-53 0 1 63 c0 61 0 62 -26 62 -26 0 -27
-2 -21 -42 8 -58 2 -108 -12 -108 -14 0 -89 134 -80 144 3 3 -10 6 -31 6 -21
0 -35 -4 -31 -9 8 -15 -57 -141 -73 -141 -8 0 -12 6 -9 13 3 9 -12 12 -56 12
-50 0 -60 3 -63 18 -2 15 4 17 40 13 38 -3 42 -2 41 17 -1 19 -7 21 -43 18
-34 -2 -41 0 -36 12 4 11 20 15 60 13 50 -1 54 0 54 21 0 13 -1 22 -2 21 -2
-1 -39 -4 -84 -5z m216 -84 c0 -5 -7 -9 -15 -9 -15 0 -20 12 -9 23 8 8 24 -1
24 -14z"/>
<path d="M2325 3821 l-80 -6 0 -80 0 -80 80 2 c44 0 97 2 118 2 29 1 37 5 37
19 0 11 8 19 23 20 35 3 68 -7 65 -21 -3 -14 3 -17 36 -17 25 0 25 0 -15 70
-22 38 -38 74 -34 80 4 6 -8 10 -31 10 -21 0 -35 -3 -31 -6 3 -4 -10 -38 -30
-77 -29 -58 -37 -68 -47 -57 -7 10 -25 14 -55 12 -54 -4 -72 3 -65 23 5 12 16
15 40 12 33 -5 35 -3 34 30 0 4 -19 6 -41 4 -31 -2 -40 1 -37 11 3 9 23 13 61
13 53 -1 57 1 57 22 0 13 -1 22 -2 21 -2 -1 -39 -4 -83 -7z m209 -76 c4 -10
-1 -15 -14 -15 -13 0 -18 5 -14 15 4 8 10 15 14 15 4 0 10 -7 14 -15z"/>
<path d="M2802 3804 c0 -19 5 -21 35 -19 l35 4 -4 -65 c-3 -63 -2 -64 22 -64
24 0 25 2 25 62 l0 63 30 0 c22 1 30 5 30 19 0 16 -10 18 -86 19 -82 2 -87 1
-87 -19z"/>
<path d="M4793 3823 c-80 -4 -82 -4 -75 -26 9 -26 8 -110 -2 -126 -5 -7 1 -11
16 -11 13 -1 53 -2 89 -3 61 -2 67 -1 67 18 0 19 -5 21 -58 17 -45 -3 -58 -1
-63 11 -7 19 23 31 53 22 11 -3 20 -3 21 2 0 4 2 15 4 24 2 14 -4 15 -41 11
-39 -4 -44 -2 -38 12 5 14 17 17 60 14 51 -4 54 -3 54 19 0 13 -1 22 -2 21 -2
-1 -40 -4 -85 -5z"/>
<path d="M5274 3803 c0 -20 4 -22 34 -17 l33 5 -2 -63 c-2 -65 -1 -68 29 -68
15 0 17 9 15 64 l-2 64 33 -3 c29 -2 34 0 34 19 0 20 -5 21 -87 21 -83 0 -87
-1 -87 -22z"/>
<path d="M616 3809 c9 -14 8 -124 -1 -138 -5 -10 1 -11 43 -11 4 0 7 15 7 33
0 30 3 32 35 34 46 2 62 -11 50 -43 -9 -23 -7 -24 26 -24 27 0 34 3 27 13 -5
6 -9 42 -8 80 1 66 0 67 -25 67 -24 0 -26 -3 -22 -30 4 -30 4 -30 -42 -30 -46
0 -46 0 -41 30 5 28 3 30 -25 30 -21 0 -29 -4 -24 -11z"/>
<path d="M1105 3740 c0 -80 0 -80 26 -80 23 0 25 3 21 30 -3 21 0 30 10 30 18
0 61 -44 51 -53 -3 -4 13 -7 37 -7 l43 0 -27 25 c-24 23 -37 53 -17 40 11 -6
31 25 31 49 0 33 -29 46 -103 46 l-72 0 0 -80z m127 44 c18 -11 -7 -30 -42
-32 -34 -2 -40 0 -40 17 0 15 7 19 38 19 20 0 40 -2 44 -4z"/>
<path d="M1971 3750 c17 -39 28 -74 25 -79 -7 -10 23 -20 42 -14 6 3 12 12 12
21 1 10 9 32 19 51 l18 34 13 -37 c6 -20 13 -44 14 -52 1 -8 5 -14 9 -14 4 0
18 0 32 0 17 0 23 4 19 14 -3 7 8 43 25 80 l30 66 -37 0 c-20 0 -32 -4 -26 -8
8 -5 6 -19 -6 -46 l-18 -38 -13 38 c-7 22 -12 42 -11 47 1 4 -13 7 -31 7 -20
0 -34 -5 -34 -12 0 -7 -7 -28 -16 -47 l-14 -34 -14 39 c-7 21 -12 42 -11 47 1
4 -11 7 -27 7 l-29 0 29 -70z"/>
<path d="M2646 3809 c4 -7 6 -44 5 -83 l-2 -71 79 0 c73 0 78 1 74 20 -3 17
-10 20 -56 17 l-52 -4 1 66 1 66 -29 0 c-18 0 -26 -4 -21 -11z"/>
<path d="M2995 3737 l0 -83 25 4 c23 3 25 8 22 37 l-4 33 44 -2 c41 -1 43 -2
44 -33 0 -18 3 -33 7 -33 43 0 42 -3 42 80 0 80 0 80 -26 80 -22 0 -26 -4 -25
-27 1 -26 -2 -28 -40 -31 -34 -2 -42 0 -47 17 -2 10 0 24 6 30 8 8 3 11 -19
11 l-29 0 0 -83z"/>
<path d="M3290 3755 c3 -36 2 -72 -3 -80 -6 -11 -3 -15 13 -15 11 0 23 -1 27
-2 4 -2 8 34 8 80 1 82 1 82 -25 82 -25 0 -25 0 -20 -65z"/>
<path d="M3389 3807 c-43 -34 -17 -87 44 -87 40 0 66 -14 44 -23 -22 -8 -79 0
-87 13 -4 6 -11 0 -18 -15 -13 -28 -18 -26 76 -30 56 -3 82 11 82 44 0 27 -25
44 -73 48 -48 5 -52 7 -42 23 8 13 76 4 86 -12 4 -7 11 -4 18 9 9 17 6 22 -15
32 -32 14 -95 14 -115 -2z"/>
<path d="M3628 3800 c46 -43 73 -112 50 -126 -16 -10 1 -21 27 -17 21 5 24 10
22 37 -3 31 11 60 53 104 l21 22 -36 0 c-23 0 -35 -5 -35 -14 0 -7 -6 -19 -14
-25 -11 -9 -15 -8 -21 6 -5 10 -7 21 -7 26 1 4 -17 7 -40 7 l-42 0 22 -20z"/>
<path d="M3813 3793 c-53 -52 -14 -127 69 -131 36 -2 52 2 73 20 37 32 38 83
1 115 -37 32 -110 30 -143 -4z m107 -21 c51 -41 -11 -103 -66 -67 -29 19 -30
39 -4 65 25 25 41 25 70 2z"/>
<path d="M4014 3754 c1 -52 6 -69 21 -80 26 -19 109 -18 129 2 19 18 17 13 20
87 1 52 0 57 -20 57 -19 0 -21 -6 -22 -56 0 -57 -10 -74 -42 -74 -8 0 -21 4
-28 9 -16 10 -23 92 -10 109 8 9 3 12 -20 12 l-30 0 2 -66z"/>
<path d="M4215 3809 c9 -14 10 -124 1 -138 -5 -7 3 -11 24 -11 19 0 30 5 29
13 -3 28 2 45 14 43 21 -3 38 -17 47 -40 7 -19 14 -22 40 -18 l31 4 -25 27
c-25 26 -25 27 -6 39 22 14 27 61 8 80 -16 16 -172 17 -163 1z m131 -31 c9
-15 -16 -28 -53 -28 -28 0 -36 12 -24 37 4 6 72 -1 77 -9z"/>
<path d="M4506 3748 c2 -48 -1 -75 -9 -80 -7 -4 4 -8 23 -8 35 0 36 1 32 34
l-4 34 44 -2 c42 -1 43 -2 43 -33 0 -18 3 -33 8 -33 44 0 42 -3 42 80 l0 80
-27 0 c-24 0 -27 -3 -23 -30 3 -29 3 -30 -42 -30 -45 0 -45 0 -41 30 4 27 2
30 -22 30 l-27 0 3 -72z"/>
<path d="M4965 3810 c3 -5 -10 -41 -30 -79 -19 -39 -31 -72 -27 -74 14 -8 47
8 47 22 0 11 13 16 44 18 39 2 43 0 38 -17 -4 -17 0 -20 30 -20 l34 0 -40 73
c-22 41 -38 77 -34 80 3 4 -10 7 -31 7 -21 0 -35 -4 -31 -10z m45 -71 c0 -5
-7 -9 -15 -9 -15 0 -20 12 -9 23 8 8 24 -1 24 -14z"/>
<path d="M5117 3803 c8 -17 9 -103 2 -131 -3 -10 15 -14 73 -15 70 -2 77 0 81
19 3 19 0 20 -46 16 -31 -3 -52 -1 -56 7 -4 6 -6 36 -5 66 2 55 2 55 -27 55
-25 0 -28 -3 -22 -17z"/>
<path d="M5466 3748 c2 -46 -2 -76 -9 -80 -7 -4 4 -8 23 -8 35 0 36 1 32 34
l-4 34 44 -2 c42 -1 43 -2 43 -33 0 -18 3 -33 8 -33 44 0 42 -3 42 80 l0 80
-27 0 c-24 0 -27 -3 -23 -30 3 -29 3 -30 -42 -30 -45 0 -45 0 -41 30 4 27 2
30 -21 30 -26 0 -26 -1 -25 -72z"/>
<path d="M6266 3808 c3 -5 10 -6 15 -3 13 9 11 12 -6 12 -8 0 -12 -4 -9 -9z"/>
<path d="M8011 3804 c0 -11 3 -14 6 -6 3 7 2 16 -1 19 -3 4 -6 -2 -5 -13z"/>
<path d="M6290 3789 c0 -5 5 -7 10 -4 6 3 10 8 10 11 0 2 -4 4 -10 4 -5 0 -10
-5 -10 -11z"/>
<path d="M7955 3770 c-3 -6 1 -7 9 -4 18 7 21 14 7 14 -6 0 -13 -4 -16 -10z"/>
<path d="M8000 3770 c-9 -6 -10 -10 -3 -10 6 0 15 5 18 10 8 12 4 12 -15 0z"/>
<path d="M7975 3750 c5 -9 1 -11 -16 -6 -13 3 -18 3 -11 0 10 -5 10 -9 1 -20
-6 -8 -16 -11 -23 -7 -8 4 -8 3 0 -6 9 -10 17 -7 38 12 19 18 23 27 15 33 -8
5 -9 3 -4 -6z"/>
<path d="M6270 3728 c0 -9 7 -19 16 -22 15 -6 15 -4 3 11 -7 10 -15 20 -16 22
-2 2 -3 -3 -3 -11z"/>
<path d="M6251 3697 c2 -1 13 -9 24 -17 19 -14 19 -14 6 3 -7 9 -18 17 -24 17
-6 0 -8 -1 -6 -3z"/>
<path d="M7912 3686 c7 -8 15 -12 17 -11 5 6 -10 25 -20 25 -5 0 -4 -6 3 -14z"/>
<path d="M7987 3689 c7 -7 15 -10 18 -7 3 3 -2 9 -12 12 -14 6 -15 5 -6 -5z"/>
<path d="M7899 3653 c-1 -5 -1 -11 0 -15 2 -12 -17 -10 -22 2 -3 6 -4 5 -3 -2
3 -14 26 -18 25 -4 0 5 5 13 13 17 10 7 10 9 1 9 -7 0 -14 -3 -14 -7z"/>
<path d="M7930 3652 c0 -5 7 -9 15 -9 8 0 12 4 9 9 -3 4 -9 8 -15 8 -5 0 -9
-4 -9 -8z"/>
<path d="M6256 3633 c-6 -14 -5 -15 5 -6 7 7 10 15 7 18 -3 3 -9 -2 -12 -12z"/>
<path d="M7911 3617 c-8 -10 -7 -14 2 -14 8 0 14 6 14 14 0 7 -1 13 -2 13 -2
0 -8 -6 -14 -13z"/>
<path d="M6270 3605 c0 -8 2 -15 4 -15 2 0 6 7 10 15 3 8 1 15 -4 15 -6 0 -10
-7 -10 -15z"/>
<path d="M7850 3609 c0 -5 -4 -8 -9 -5 -5 3 -15 -2 -22 -12 -12 -15 -12 -15 1
-5 15 11 20 13 40 13 6 0 10 5 10 10 0 6 -4 10 -10 10 -5 0 -10 -5 -10 -11z"/>
<path d="M7861 3581 c-8 -5 -9 -11 -3 -15 5 -3 12 1 16 9 6 17 6 18 -13 6z"/>
<path d="M6250 3575 c0 -7 30 -13 34 -7 3 4 -4 9 -15 9 -10 1 -19 0 -19 -2z"/>
<path d="M7026 3538 c-7 -10 -15 -15 -18 -12 -3 3 -9 0 -14 -7 -4 -8 -3 -10 4
-5 7 4 12 2 12 -3 0 -6 -5 -11 -11 -11 -5 0 -7 -5 -3 -11 4 -8 12 -3 20 12 12
22 19 19 14 -6 -1 -5 5 -4 12 4 10 11 10 14 1 18 -19 7 -15 19 6 20 14 1 18
-3 14 -15 -4 -14 -3 -14 5 -2 6 8 8 18 5 24 -4 6 1 7 13 2 10 -4 15 -3 10 1
-14 15 -58 9 -70 -9z"/>
<path d="M7834 3549 c-3 -6 -3 -13 0 -16 3 -4 6 -1 6 5 0 6 7 9 15 6 8 -4 15
-4 15 -1 0 11 -30 16 -36 6z"/>
<path d="M7107 3537 c-3 -8 1 -14 8 -14 7 0 11 6 8 14 -3 7 -6 13 -8 13 -2 0
-5 -6 -8 -13z"/>
<path d="M7705 3500 c-4 -6 -1 -17 5 -25 10 -12 10 -15 0 -15 -8 0 -11 -3 -7
-6 3 -3 11 -3 17 1 8 5 8 11 -1 21 -6 8 -9 18 -5 21 4 4 11 1 16 -7 5 -8 12
-11 17 -7 4 5 1 12 -7 17 -19 13 -27 12 -35 0z"/>
<path d="M7814 3496 c1 -8 5 -18 8 -22 4 -3 5 1 4 10 -1 8 -5 18 -8 22 -4 3
-5 -1 -4 -10z"/>
<path d="M6260 3496 c0 -2 7 -7 16 -10 8 -3 12 -2 9 4 -6 10 -25 14 -25 6z"/>
<path d="M7056 3485 c-9 -26 -7 -32 5 -12 6 10 9 21 6 23 -2 3 -7 -2 -11 -11z"/>
<path d="M7663 3484 c-18 -19 -16 -29 2 -14 17 14 20 1 5 -18 -5 -7 -3 -6 6 2
11 9 13 19 8 29 -8 13 -11 13 -21 1z"/>
<path d="M7623 3466 c3 -7 0 -20 -6 -27 -10 -11 -9 -11 5 0 15 11 15 41 1 41
-3 0 -3 -6 0 -14z"/>
<path d="M7300 3466 c0 -2 7 -7 16 -10 8 -3 12 -2 9 4 -6 10 -25 14 -25 6z"/>
<path d="M7563 3449 c-28 -18 -36 -39 -16 -39 4 0 3 3 0 7 -4 3 1 12 11 19 23
18 37 17 22 -1 -7 -8 -9 -15 -5 -15 9 0 34 31 35 43 0 12 -13 8 -47 -14z"/>
<path d="M7756 3457 c3 -10 9 -15 12 -12 3 3 0 11 -7 18 -10 9 -11 8 -5 -6z"/>
<path d="M7350 3440 c-8 -5 -10 -10 -5 -10 6 0 17 5 25 10 8 5 11 10 5 10 -5
0 -17 -5 -25 -10z"/>
<path d="M7430 3443 c5 -2 8 -9 4 -14 -3 -5 0 -9 6 -9 15 0 7 23 -8 26 -7 1
-8 0 -2 -3z"/>
<path d="M7395 3430 c3 -5 8 -10 11 -10 2 0 4 5 4 10 0 6 -5 10 -11 10 -5 0
-7 -4 -4 -10z"/>
<path d="M7476 3423 c-6 -14 -5 -15 5 -6 7 7 10 15 7 18 -3 3 -9 -2 -12 -12z"/>
<path d="M7636 3425 c-9 -26 -7 -32 5 -12 6 10 9 21 6 23 -2 3 -7 -2 -11 -11z"/>
<path d="M6290 3386 c0 -2 8 -10 18 -17 15 -13 16 -12 3 4 -13 16 -21 21 -21
13z"/>
<path d="M6975 3341 c-3 -5 -2 -12 3 -15 5 -3 9 1 9 9 0 17 -3 19 -12 6z"/>
<path d="M6950 3271 c0 -6 4 -12 8 -15 5 -3 9 1 9 9 0 8 -4 15 -9 15 -4 0 -8
-4 -8 -9z"/>
<path d="M6317 3259 c7 -7 15 -10 18 -7 3 3 -2 9 -12 12 -14 6 -15 5 -6 -5z"/>
<path d="M6907 3252 c4 -9 2 -13 -4 -9 -5 3 -10 0 -10 -8 0 -8 6 -16 13 -19 9
-3 11 1 7 12 -5 14 -3 15 8 5 7 -7 17 -13 23 -13 5 0 1 7 -10 16 -17 14 -17
15 -1 10 10 -3 16 -2 13 3 -3 5 -14 11 -25 14 -15 3 -18 1 -14 -11z"/>
<path d="M6882 3201 c-11 -6 -10 -10 0 -19 11 -8 14 -7 14 9 0 10 0 19 -1 19
0 0 -6 -4 -13 -9z"/>
<path d="M6876 3097 c3 -10 9 -15 12 -12 3 3 0 11 -7 18 -10 9 -11 8 -5 -6z"/>
<path d="M6800 3065 c0 -5 5 -17 10 -25 5 -8 10 -10 10 -5 0 6 -5 17 -10 25
-5 8 -10 11 -10 5z"/>
<path d="M6737 3023 c-10 -10 -8 -23 4 -23 5 0 8 4 5 9 -4 5 0 12 6 14 7 3 8
6 2 6 -6 1 -14 -2 -17 -6z"/>
<path d="M6633 2986 c-3 -6 -2 -7 2 -3 5 4 14 -2 21 -14 11 -22 12 -22 12 3 0
25 -23 34 -35 14z"/>
<path d="M6710 2981 c0 -6 4 -12 8 -15 5 -3 9 1 9 9 0 8 -4 15 -9 15 -4 0 -8
-4 -8 -9z"/>
<path d="M6610 2971 c0 -7 -7 -11 -15 -8 -8 4 -17 1 -21 -5 -4 -7 -3 -8 4 -4
7 4 12 2 12 -3 0 -6 4 -11 9 -11 11 0 24 31 16 38 -3 3 -5 0 -5 -7z"/>
<path d="M6358 2953 c7 -3 16 -2 19 1 4 3 -2 6 -13 5 -11 0 -14 -3 -6 -6z"/>
<path d="M6390 2940 c0 -6 7 -10 15 -10 8 0 15 2 15 4 0 2 -7 6 -15 10 -8 3
-15 1 -15 -4z"/>
<path d="M6473 2943 c-7 -3 -13 -9 -13 -15 0 -7 5 -6 14 1 11 9 15 9 19 -1 4
-9 6 -9 6 -1 1 15 -10 22 -26 16z"/>
<path d="M6540 2936 c0 -2 11 -6 25 -8 13 -3 22 -1 19 3 -5 9 -44 13 -44 5z"/>
<path d="M6628 2933 c6 -3 10 -9 6 -14 -8 -14 2 -11 14 4 8 10 6 13 -11 14
-12 0 -16 -1 -9 -4z"/>
<path d="M6433 2915 c0 -8 4 -12 9 -9 5 3 6 10 3 15 -9 13 -12 11 -12 -6z"/>
<path d="M6510 2920 c0 -5 5 -10 11 -10 5 0 7 5 4 10 -3 6 -8 10 -11 10 -2 0
-4 -4 -4 -10z"/>
</g>
</svg>
